G75*
%MOIN*%
%OFA0B0*%
%FSLAX25Y25*%
%IPPOS*%
%LPD*%
%AMOC8*
5,1,8,0,0,1.08239X$1,22.5*
%
%ADD10C,0.08200*%
%ADD11C,0.04737*%
%ADD12C,0.07400*%
%ADD13C,0.06800*%
%ADD14C,0.13800*%
D10*
X0153750Y0068500D03*
X0153750Y0078500D03*
X0153750Y0088500D03*
X0153750Y0098500D03*
X0153750Y0180500D03*
X0153750Y0190500D03*
X0153750Y0200500D03*
X0153750Y0210500D03*
X0153750Y0292500D03*
X0153750Y0302500D03*
X0153750Y0312500D03*
X0153750Y0322500D03*
X0153750Y0404500D03*
X0153750Y0414500D03*
X0153750Y0424500D03*
X0153750Y0434500D03*
X0153750Y0516500D03*
X0153750Y0526500D03*
X0153750Y0536500D03*
X0153750Y0546500D03*
X0325750Y0546500D03*
X0325750Y0536500D03*
X0325750Y0526500D03*
X0325750Y0516500D03*
X0325750Y0434500D03*
X0325750Y0424500D03*
X0325750Y0414500D03*
X0325750Y0404500D03*
X0325750Y0322500D03*
X0325750Y0312500D03*
X0325750Y0302500D03*
X0325750Y0292500D03*
X0325750Y0210500D03*
X0325750Y0200500D03*
X0325750Y0190500D03*
X0325750Y0180500D03*
X0325750Y0098500D03*
X0325750Y0088500D03*
X0325750Y0078500D03*
X0325750Y0068500D03*
X0497750Y0068500D03*
X0497750Y0078500D03*
X0497750Y0088500D03*
X0497750Y0098500D03*
X0497750Y0180500D03*
X0497750Y0190500D03*
X0497750Y0200500D03*
X0497750Y0210500D03*
X0497750Y0292500D03*
X0497750Y0302500D03*
X0497750Y0312500D03*
X0497750Y0322500D03*
X0497750Y0404500D03*
X0497750Y0414500D03*
X0497750Y0424500D03*
X0497750Y0434500D03*
X0497750Y0516500D03*
X0497750Y0526500D03*
X0497750Y0536500D03*
X0497750Y0546500D03*
X0669750Y0546500D03*
X0669750Y0536500D03*
X0669750Y0526500D03*
X0669750Y0516500D03*
X0669750Y0434500D03*
X0669750Y0424500D03*
X0669750Y0414500D03*
X0669750Y0404500D03*
X0669750Y0322500D03*
X0669750Y0312500D03*
X0669750Y0302500D03*
X0669750Y0292500D03*
X0669750Y0210500D03*
X0669750Y0200500D03*
X0669750Y0190500D03*
X0669750Y0180500D03*
X0669750Y0098500D03*
X0669750Y0088500D03*
X0669750Y0078500D03*
X0669750Y0068500D03*
X0841750Y0068500D03*
X0841750Y0078500D03*
X0841750Y0088500D03*
X0841750Y0098500D03*
X0841750Y0180500D03*
X0841750Y0190500D03*
X0841750Y0200500D03*
X0841750Y0210500D03*
X0841750Y0292500D03*
X0841750Y0302500D03*
X0841750Y0312500D03*
X0841750Y0322500D03*
X0841750Y0404500D03*
X0841750Y0414500D03*
X0841750Y0424500D03*
X0841750Y0434500D03*
X0841750Y0516500D03*
X0841750Y0526500D03*
X0841750Y0536500D03*
X0841750Y0546500D03*
D11*
X0058750Y0033500D03*
X0178750Y0133500D03*
X0230750Y0145500D03*
X0350750Y0133500D03*
X0402750Y0145500D03*
X0522750Y0133500D03*
X0574750Y0145500D03*
X0694750Y0133500D03*
X0746750Y0145500D03*
X0866750Y0133500D03*
X0746750Y0033500D03*
X0574750Y0033500D03*
X0402750Y0033500D03*
X0230750Y0033500D03*
X0058750Y0145500D03*
X0178750Y0245500D03*
X0230750Y0257500D03*
X0350750Y0245500D03*
X0402750Y0257500D03*
X0522750Y0245500D03*
X0574750Y0257500D03*
X0694750Y0245500D03*
X0746750Y0257500D03*
X0866750Y0245500D03*
X0866750Y0357500D03*
X0746750Y0369500D03*
X0694750Y0357500D03*
X0574750Y0369500D03*
X0522750Y0357500D03*
X0402750Y0369500D03*
X0350750Y0357500D03*
X0230750Y0369500D03*
X0178750Y0357500D03*
X0058750Y0369500D03*
X0178750Y0469500D03*
X0230750Y0481500D03*
X0350750Y0469500D03*
X0402750Y0481500D03*
X0522750Y0469500D03*
X0574750Y0481500D03*
X0694750Y0469500D03*
X0746750Y0481500D03*
X0866750Y0469500D03*
X0866750Y0581500D03*
X0694750Y0581500D03*
X0522750Y0581500D03*
X0350750Y0581500D03*
X0178750Y0581500D03*
X0058750Y0481500D03*
X0058750Y0257500D03*
D12*
X0088821Y0283516D03*
X0098821Y0283516D03*
X0108821Y0283516D03*
X0118821Y0283516D03*
X0128821Y0283516D03*
X0138821Y0283516D03*
X0148821Y0283516D03*
X0158821Y0283516D03*
X0138821Y0331705D03*
X0128821Y0331705D03*
X0118821Y0331705D03*
X0108821Y0331705D03*
X0098821Y0331705D03*
X0088821Y0331705D03*
X0088821Y0395516D03*
X0098821Y0395516D03*
X0108821Y0395516D03*
X0118821Y0395516D03*
X0128821Y0395516D03*
X0138821Y0395516D03*
X0148821Y0395516D03*
X0158821Y0395516D03*
X0138821Y0443705D03*
X0128821Y0443705D03*
X0118821Y0443705D03*
X0108821Y0443705D03*
X0098821Y0443705D03*
X0088821Y0443705D03*
X0088821Y0507516D03*
X0098821Y0507516D03*
X0108821Y0507516D03*
X0118821Y0507516D03*
X0128821Y0507516D03*
X0138821Y0507516D03*
X0148821Y0507516D03*
X0158821Y0507516D03*
X0138821Y0555705D03*
X0128821Y0555705D03*
X0118821Y0555705D03*
X0108821Y0555705D03*
X0098821Y0555705D03*
X0088821Y0555705D03*
X0260821Y0555705D03*
X0270821Y0555705D03*
X0280821Y0555705D03*
X0290821Y0555705D03*
X0300821Y0555705D03*
X0310821Y0555705D03*
X0310821Y0507516D03*
X0320821Y0507516D03*
X0330821Y0507516D03*
X0300821Y0507516D03*
X0290821Y0507516D03*
X0280821Y0507516D03*
X0270821Y0507516D03*
X0260821Y0507516D03*
X0260821Y0443705D03*
X0270821Y0443705D03*
X0280821Y0443705D03*
X0290821Y0443705D03*
X0300821Y0443705D03*
X0310821Y0443705D03*
X0310821Y0395516D03*
X0320821Y0395516D03*
X0330821Y0395516D03*
X0300821Y0395516D03*
X0290821Y0395516D03*
X0280821Y0395516D03*
X0270821Y0395516D03*
X0260821Y0395516D03*
X0260821Y0331705D03*
X0270821Y0331705D03*
X0280821Y0331705D03*
X0290821Y0331705D03*
X0300821Y0331705D03*
X0310821Y0331705D03*
X0310821Y0283516D03*
X0320821Y0283516D03*
X0330821Y0283516D03*
X0300821Y0283516D03*
X0290821Y0283516D03*
X0280821Y0283516D03*
X0270821Y0283516D03*
X0260821Y0283516D03*
X0260821Y0219705D03*
X0270821Y0219705D03*
X0280821Y0219705D03*
X0290821Y0219705D03*
X0300821Y0219705D03*
X0310821Y0219705D03*
X0310821Y0171516D03*
X0320821Y0171516D03*
X0330821Y0171516D03*
X0300821Y0171516D03*
X0290821Y0171516D03*
X0280821Y0171516D03*
X0270821Y0171516D03*
X0260821Y0171516D03*
X0260821Y0107705D03*
X0270821Y0107705D03*
X0280821Y0107705D03*
X0290821Y0107705D03*
X0300821Y0107705D03*
X0310821Y0107705D03*
X0310821Y0059516D03*
X0320821Y0059516D03*
X0330821Y0059516D03*
X0300821Y0059516D03*
X0290821Y0059516D03*
X0280821Y0059516D03*
X0270821Y0059516D03*
X0260821Y0059516D03*
X0158821Y0059516D03*
X0148821Y0059516D03*
X0138821Y0059516D03*
X0128821Y0059516D03*
X0118821Y0059516D03*
X0108821Y0059516D03*
X0098821Y0059516D03*
X0088821Y0059516D03*
X0088821Y0107705D03*
X0098821Y0107705D03*
X0108821Y0107705D03*
X0118821Y0107705D03*
X0128821Y0107705D03*
X0138821Y0107705D03*
X0138821Y0171516D03*
X0148821Y0171516D03*
X0158821Y0171516D03*
X0128821Y0171516D03*
X0118821Y0171516D03*
X0108821Y0171516D03*
X0098821Y0171516D03*
X0088821Y0171516D03*
X0088821Y0219705D03*
X0098821Y0219705D03*
X0108821Y0219705D03*
X0118821Y0219705D03*
X0128821Y0219705D03*
X0138821Y0219705D03*
X0432821Y0219705D03*
X0442821Y0219705D03*
X0452821Y0219705D03*
X0462821Y0219705D03*
X0472821Y0219705D03*
X0482821Y0219705D03*
X0482821Y0171516D03*
X0492821Y0171516D03*
X0502821Y0171516D03*
X0472821Y0171516D03*
X0462821Y0171516D03*
X0452821Y0171516D03*
X0442821Y0171516D03*
X0432821Y0171516D03*
X0432821Y0107705D03*
X0442821Y0107705D03*
X0452821Y0107705D03*
X0462821Y0107705D03*
X0472821Y0107705D03*
X0482821Y0107705D03*
X0482821Y0059516D03*
X0492821Y0059516D03*
X0502821Y0059516D03*
X0472821Y0059516D03*
X0462821Y0059516D03*
X0452821Y0059516D03*
X0442821Y0059516D03*
X0432821Y0059516D03*
X0604821Y0059516D03*
X0614821Y0059516D03*
X0624821Y0059516D03*
X0634821Y0059516D03*
X0644821Y0059516D03*
X0654821Y0059516D03*
X0664821Y0059516D03*
X0674821Y0059516D03*
X0654821Y0107705D03*
X0644821Y0107705D03*
X0634821Y0107705D03*
X0624821Y0107705D03*
X0614821Y0107705D03*
X0604821Y0107705D03*
X0604821Y0171516D03*
X0614821Y0171516D03*
X0624821Y0171516D03*
X0634821Y0171516D03*
X0644821Y0171516D03*
X0654821Y0171516D03*
X0664821Y0171516D03*
X0674821Y0171516D03*
X0654821Y0219705D03*
X0644821Y0219705D03*
X0634821Y0219705D03*
X0624821Y0219705D03*
X0614821Y0219705D03*
X0604821Y0219705D03*
X0604821Y0283516D03*
X0614821Y0283516D03*
X0624821Y0283516D03*
X0634821Y0283516D03*
X0644821Y0283516D03*
X0654821Y0283516D03*
X0664821Y0283516D03*
X0674821Y0283516D03*
X0654821Y0331705D03*
X0644821Y0331705D03*
X0634821Y0331705D03*
X0624821Y0331705D03*
X0614821Y0331705D03*
X0604821Y0331705D03*
X0502821Y0283516D03*
X0492821Y0283516D03*
X0482821Y0283516D03*
X0472821Y0283516D03*
X0462821Y0283516D03*
X0452821Y0283516D03*
X0442821Y0283516D03*
X0432821Y0283516D03*
X0432821Y0331705D03*
X0442821Y0331705D03*
X0452821Y0331705D03*
X0462821Y0331705D03*
X0472821Y0331705D03*
X0482821Y0331705D03*
X0482821Y0395516D03*
X0492821Y0395516D03*
X0502821Y0395516D03*
X0472821Y0395516D03*
X0462821Y0395516D03*
X0452821Y0395516D03*
X0442821Y0395516D03*
X0432821Y0395516D03*
X0432821Y0443705D03*
X0442821Y0443705D03*
X0452821Y0443705D03*
X0462821Y0443705D03*
X0472821Y0443705D03*
X0482821Y0443705D03*
X0482821Y0507516D03*
X0492821Y0507516D03*
X0502821Y0507516D03*
X0472821Y0507516D03*
X0462821Y0507516D03*
X0452821Y0507516D03*
X0442821Y0507516D03*
X0432821Y0507516D03*
X0432821Y0555705D03*
X0442821Y0555705D03*
X0452821Y0555705D03*
X0462821Y0555705D03*
X0472821Y0555705D03*
X0482821Y0555705D03*
X0604821Y0555705D03*
X0614821Y0555705D03*
X0624821Y0555705D03*
X0634821Y0555705D03*
X0644821Y0555705D03*
X0654821Y0555705D03*
X0654821Y0507516D03*
X0664821Y0507516D03*
X0674821Y0507516D03*
X0644821Y0507516D03*
X0634821Y0507516D03*
X0624821Y0507516D03*
X0614821Y0507516D03*
X0604821Y0507516D03*
X0604821Y0443705D03*
X0614821Y0443705D03*
X0624821Y0443705D03*
X0634821Y0443705D03*
X0644821Y0443705D03*
X0654821Y0443705D03*
X0654821Y0395516D03*
X0664821Y0395516D03*
X0674821Y0395516D03*
X0644821Y0395516D03*
X0634821Y0395516D03*
X0624821Y0395516D03*
X0614821Y0395516D03*
X0604821Y0395516D03*
X0776821Y0395516D03*
X0786821Y0395516D03*
X0796821Y0395516D03*
X0806821Y0395516D03*
X0816821Y0395516D03*
X0826821Y0395516D03*
X0836821Y0395516D03*
X0846821Y0395516D03*
X0826821Y0443705D03*
X0816821Y0443705D03*
X0806821Y0443705D03*
X0796821Y0443705D03*
X0786821Y0443705D03*
X0776821Y0443705D03*
X0776821Y0507516D03*
X0786821Y0507516D03*
X0796821Y0507516D03*
X0806821Y0507516D03*
X0816821Y0507516D03*
X0826821Y0507516D03*
X0836821Y0507516D03*
X0846821Y0507516D03*
X0826821Y0555705D03*
X0816821Y0555705D03*
X0806821Y0555705D03*
X0796821Y0555705D03*
X0786821Y0555705D03*
X0776821Y0555705D03*
X0776821Y0331705D03*
X0786821Y0331705D03*
X0796821Y0331705D03*
X0806821Y0331705D03*
X0816821Y0331705D03*
X0826821Y0331705D03*
X0826821Y0283516D03*
X0836821Y0283516D03*
X0846821Y0283516D03*
X0816821Y0283516D03*
X0806821Y0283516D03*
X0796821Y0283516D03*
X0786821Y0283516D03*
X0776821Y0283516D03*
X0776821Y0219705D03*
X0786821Y0219705D03*
X0796821Y0219705D03*
X0806821Y0219705D03*
X0816821Y0219705D03*
X0826821Y0219705D03*
X0826821Y0171516D03*
X0836821Y0171516D03*
X0846821Y0171516D03*
X0816821Y0171516D03*
X0806821Y0171516D03*
X0796821Y0171516D03*
X0786821Y0171516D03*
X0776821Y0171516D03*
X0776821Y0107705D03*
X0786821Y0107705D03*
X0796821Y0107705D03*
X0806821Y0107705D03*
X0816821Y0107705D03*
X0826821Y0107705D03*
X0826821Y0059516D03*
X0836821Y0059516D03*
X0846821Y0059516D03*
X0816821Y0059516D03*
X0806821Y0059516D03*
X0796821Y0059516D03*
X0786821Y0059516D03*
X0776821Y0059516D03*
D13*
X0836821Y0107705D03*
X0846821Y0107705D03*
X0674821Y0107705D03*
X0664821Y0107705D03*
X0502821Y0107705D03*
X0492821Y0107705D03*
X0330821Y0107705D03*
X0320821Y0107705D03*
X0158821Y0107705D03*
X0148821Y0107705D03*
X0148821Y0219705D03*
X0158821Y0219705D03*
X0320821Y0219705D03*
X0330821Y0219705D03*
X0492821Y0219705D03*
X0502821Y0219705D03*
X0664821Y0219705D03*
X0674821Y0219705D03*
X0836821Y0219705D03*
X0846821Y0219705D03*
X0846821Y0331705D03*
X0836821Y0331705D03*
X0674821Y0331705D03*
X0664821Y0331705D03*
X0502821Y0331705D03*
X0492821Y0331705D03*
X0330821Y0331705D03*
X0320821Y0331705D03*
X0158821Y0331705D03*
X0148821Y0331705D03*
X0148821Y0443705D03*
X0158821Y0443705D03*
X0320821Y0443705D03*
X0330821Y0443705D03*
X0492821Y0443705D03*
X0502821Y0443705D03*
X0664821Y0443705D03*
X0674821Y0443705D03*
X0836821Y0443705D03*
X0846821Y0443705D03*
X0846821Y0555705D03*
X0836821Y0555705D03*
X0674821Y0555705D03*
X0664821Y0555705D03*
X0502821Y0555705D03*
X0492821Y0555705D03*
X0330821Y0555705D03*
X0320821Y0555705D03*
X0158821Y0555705D03*
X0148821Y0555705D03*
D14*
X0188750Y0576500D03*
X0220750Y0576500D03*
X0220750Y0486500D03*
X0220750Y0464500D03*
X0188750Y0464500D03*
X0188750Y0486500D03*
X0048750Y0486500D03*
X0048750Y0464500D03*
X0048750Y0374500D03*
X0048750Y0352500D03*
X0188750Y0352500D03*
X0188750Y0374500D03*
X0220750Y0374500D03*
X0220750Y0352500D03*
X0360750Y0352500D03*
X0360750Y0374500D03*
X0392750Y0374500D03*
X0392750Y0352500D03*
X0532750Y0352500D03*
X0532750Y0374500D03*
X0564750Y0374500D03*
X0564750Y0352500D03*
X0704750Y0352500D03*
X0704750Y0374500D03*
X0736750Y0374500D03*
X0736750Y0352500D03*
X0876750Y0352500D03*
X0876750Y0374500D03*
X0876750Y0464500D03*
X0876750Y0486500D03*
X0876750Y0576500D03*
X0736750Y0576500D03*
X0704750Y0576500D03*
X0704750Y0486500D03*
X0736750Y0486500D03*
X0736750Y0464500D03*
X0704750Y0464500D03*
X0564750Y0464500D03*
X0532750Y0464500D03*
X0532750Y0486500D03*
X0564750Y0486500D03*
X0564750Y0576500D03*
X0532750Y0576500D03*
X0392750Y0576500D03*
X0360750Y0576500D03*
X0360750Y0486500D03*
X0392750Y0486500D03*
X0392750Y0464500D03*
X0360750Y0464500D03*
X0048750Y0576500D03*
X0048750Y0262500D03*
X0048750Y0240500D03*
X0188750Y0240500D03*
X0188750Y0262500D03*
X0220750Y0262500D03*
X0220750Y0240500D03*
X0360750Y0240500D03*
X0360750Y0262500D03*
X0392750Y0262500D03*
X0392750Y0240500D03*
X0532750Y0240500D03*
X0532750Y0262500D03*
X0564750Y0262500D03*
X0564750Y0240500D03*
X0704750Y0240500D03*
X0704750Y0262500D03*
X0736750Y0262500D03*
X0736750Y0240500D03*
X0876750Y0240500D03*
X0876750Y0262500D03*
X0876750Y0150500D03*
X0876750Y0128500D03*
X0876750Y0038500D03*
X0736750Y0038500D03*
X0704750Y0038500D03*
X0704750Y0128500D03*
X0736750Y0128500D03*
X0736750Y0150500D03*
X0704750Y0150500D03*
X0564750Y0150500D03*
X0532750Y0150500D03*
X0532750Y0128500D03*
X0564750Y0128500D03*
X0564750Y0038500D03*
X0532750Y0038500D03*
X0392750Y0038500D03*
X0360750Y0038500D03*
X0360750Y0128500D03*
X0392750Y0128500D03*
X0392750Y0150500D03*
X0360750Y0150500D03*
X0220750Y0150500D03*
X0220750Y0128500D03*
X0188750Y0128500D03*
X0188750Y0150500D03*
X0048750Y0150500D03*
X0048750Y0128500D03*
X0048750Y0038500D03*
X0188750Y0038500D03*
X0220750Y0038500D03*
M02*
