G75*
%MOIN*%
%OFA0B0*%
%FSLAX25Y25*%
%IPPOS*%
%LPD*%
%AMOC8*
5,1,8,0,0,1.08239X$1,22.5*
%
%ADD10R,0.03937X0.04331*%
%ADD11C,0.01181*%
%ADD12R,0.04331X0.03937*%
%ADD13R,0.03268X0.02480*%
%ADD14R,0.06102X0.02362*%
%ADD15R,0.07874X0.04724*%
%ADD16R,0.02600X0.04500*%
D10*
X0146750Y0067654D03*
X0146750Y0074346D03*
X0146750Y0179654D03*
X0146750Y0186346D03*
X0146750Y0291654D03*
X0146750Y0298346D03*
X0146750Y0403654D03*
X0146750Y0410346D03*
X0146750Y0515654D03*
X0146750Y0522346D03*
X0318750Y0522346D03*
X0318750Y0515654D03*
X0318750Y0410346D03*
X0318750Y0403654D03*
X0318750Y0298346D03*
X0318750Y0291654D03*
X0318750Y0186346D03*
X0318750Y0179654D03*
X0318750Y0074346D03*
X0318750Y0067654D03*
X0490750Y0067654D03*
X0490750Y0074346D03*
X0490750Y0179654D03*
X0490750Y0186346D03*
X0490750Y0291654D03*
X0490750Y0298346D03*
X0490750Y0403654D03*
X0490750Y0410346D03*
X0490750Y0515654D03*
X0490750Y0522346D03*
X0662750Y0522346D03*
X0662750Y0515654D03*
X0662750Y0410346D03*
X0662750Y0403654D03*
X0662750Y0298346D03*
X0662750Y0291654D03*
X0662750Y0186346D03*
X0662750Y0179654D03*
X0662750Y0074346D03*
X0662750Y0067654D03*
X0834750Y0067654D03*
X0834750Y0074346D03*
X0834750Y0179654D03*
X0834750Y0186346D03*
X0834750Y0291654D03*
X0834750Y0298346D03*
X0834750Y0403654D03*
X0834750Y0410346D03*
X0834750Y0515654D03*
X0834750Y0522346D03*
D11*
X0746581Y0515378D02*
X0746581Y0512622D01*
X0743825Y0512622D01*
X0743825Y0515378D01*
X0746581Y0515378D01*
X0746581Y0513744D02*
X0743825Y0513744D01*
X0743825Y0514866D02*
X0746581Y0514866D01*
X0739675Y0515378D02*
X0739675Y0512622D01*
X0736919Y0512622D01*
X0736919Y0515378D01*
X0739675Y0515378D01*
X0739675Y0513744D02*
X0736919Y0513744D01*
X0736919Y0514866D02*
X0739675Y0514866D01*
X0574581Y0515378D02*
X0574581Y0512622D01*
X0571825Y0512622D01*
X0571825Y0515378D01*
X0574581Y0515378D01*
X0574581Y0513744D02*
X0571825Y0513744D01*
X0571825Y0514866D02*
X0574581Y0514866D01*
X0567675Y0515378D02*
X0567675Y0512622D01*
X0564919Y0512622D01*
X0564919Y0515378D01*
X0567675Y0515378D01*
X0567675Y0513744D02*
X0564919Y0513744D01*
X0564919Y0514866D02*
X0567675Y0514866D01*
X0402581Y0515378D02*
X0402581Y0512622D01*
X0399825Y0512622D01*
X0399825Y0515378D01*
X0402581Y0515378D01*
X0402581Y0513744D02*
X0399825Y0513744D01*
X0399825Y0514866D02*
X0402581Y0514866D01*
X0395675Y0515378D02*
X0395675Y0512622D01*
X0392919Y0512622D01*
X0392919Y0515378D01*
X0395675Y0515378D01*
X0395675Y0513744D02*
X0392919Y0513744D01*
X0392919Y0514866D02*
X0395675Y0514866D01*
X0230581Y0515378D02*
X0230581Y0512622D01*
X0227825Y0512622D01*
X0227825Y0515378D01*
X0230581Y0515378D01*
X0230581Y0513744D02*
X0227825Y0513744D01*
X0227825Y0514866D02*
X0230581Y0514866D01*
X0223675Y0515378D02*
X0223675Y0512622D01*
X0220919Y0512622D01*
X0220919Y0515378D01*
X0223675Y0515378D01*
X0223675Y0513744D02*
X0220919Y0513744D01*
X0220919Y0514866D02*
X0223675Y0514866D01*
X0058581Y0515378D02*
X0058581Y0512622D01*
X0055825Y0512622D01*
X0055825Y0515378D01*
X0058581Y0515378D01*
X0058581Y0513744D02*
X0055825Y0513744D01*
X0055825Y0514866D02*
X0058581Y0514866D01*
X0051675Y0515378D02*
X0051675Y0512622D01*
X0048919Y0512622D01*
X0048919Y0515378D01*
X0051675Y0515378D01*
X0051675Y0513744D02*
X0048919Y0513744D01*
X0048919Y0514866D02*
X0051675Y0514866D01*
X0051675Y0403378D02*
X0051675Y0400622D01*
X0048919Y0400622D01*
X0048919Y0403378D01*
X0051675Y0403378D01*
X0051675Y0401744D02*
X0048919Y0401744D01*
X0048919Y0402866D02*
X0051675Y0402866D01*
X0058581Y0403378D02*
X0058581Y0400622D01*
X0055825Y0400622D01*
X0055825Y0403378D01*
X0058581Y0403378D01*
X0058581Y0401744D02*
X0055825Y0401744D01*
X0055825Y0402866D02*
X0058581Y0402866D01*
X0223675Y0403378D02*
X0223675Y0400622D01*
X0220919Y0400622D01*
X0220919Y0403378D01*
X0223675Y0403378D01*
X0223675Y0401744D02*
X0220919Y0401744D01*
X0220919Y0402866D02*
X0223675Y0402866D01*
X0230581Y0403378D02*
X0230581Y0400622D01*
X0227825Y0400622D01*
X0227825Y0403378D01*
X0230581Y0403378D01*
X0230581Y0401744D02*
X0227825Y0401744D01*
X0227825Y0402866D02*
X0230581Y0402866D01*
X0395675Y0403378D02*
X0395675Y0400622D01*
X0392919Y0400622D01*
X0392919Y0403378D01*
X0395675Y0403378D01*
X0395675Y0401744D02*
X0392919Y0401744D01*
X0392919Y0402866D02*
X0395675Y0402866D01*
X0402581Y0403378D02*
X0402581Y0400622D01*
X0399825Y0400622D01*
X0399825Y0403378D01*
X0402581Y0403378D01*
X0402581Y0401744D02*
X0399825Y0401744D01*
X0399825Y0402866D02*
X0402581Y0402866D01*
X0567675Y0403378D02*
X0567675Y0400622D01*
X0564919Y0400622D01*
X0564919Y0403378D01*
X0567675Y0403378D01*
X0567675Y0401744D02*
X0564919Y0401744D01*
X0564919Y0402866D02*
X0567675Y0402866D01*
X0574581Y0403378D02*
X0574581Y0400622D01*
X0571825Y0400622D01*
X0571825Y0403378D01*
X0574581Y0403378D01*
X0574581Y0401744D02*
X0571825Y0401744D01*
X0571825Y0402866D02*
X0574581Y0402866D01*
X0739675Y0403378D02*
X0739675Y0400622D01*
X0736919Y0400622D01*
X0736919Y0403378D01*
X0739675Y0403378D01*
X0739675Y0401744D02*
X0736919Y0401744D01*
X0736919Y0402866D02*
X0739675Y0402866D01*
X0746581Y0403378D02*
X0746581Y0400622D01*
X0743825Y0400622D01*
X0743825Y0403378D01*
X0746581Y0403378D01*
X0746581Y0401744D02*
X0743825Y0401744D01*
X0743825Y0402866D02*
X0746581Y0402866D01*
X0746581Y0291378D02*
X0746581Y0288622D01*
X0743825Y0288622D01*
X0743825Y0291378D01*
X0746581Y0291378D01*
X0746581Y0289744D02*
X0743825Y0289744D01*
X0743825Y0290866D02*
X0746581Y0290866D01*
X0739675Y0291378D02*
X0739675Y0288622D01*
X0736919Y0288622D01*
X0736919Y0291378D01*
X0739675Y0291378D01*
X0739675Y0289744D02*
X0736919Y0289744D01*
X0736919Y0290866D02*
X0739675Y0290866D01*
X0574581Y0291378D02*
X0574581Y0288622D01*
X0571825Y0288622D01*
X0571825Y0291378D01*
X0574581Y0291378D01*
X0574581Y0289744D02*
X0571825Y0289744D01*
X0571825Y0290866D02*
X0574581Y0290866D01*
X0567675Y0291378D02*
X0567675Y0288622D01*
X0564919Y0288622D01*
X0564919Y0291378D01*
X0567675Y0291378D01*
X0567675Y0289744D02*
X0564919Y0289744D01*
X0564919Y0290866D02*
X0567675Y0290866D01*
X0402581Y0291378D02*
X0402581Y0288622D01*
X0399825Y0288622D01*
X0399825Y0291378D01*
X0402581Y0291378D01*
X0402581Y0289744D02*
X0399825Y0289744D01*
X0399825Y0290866D02*
X0402581Y0290866D01*
X0395675Y0291378D02*
X0395675Y0288622D01*
X0392919Y0288622D01*
X0392919Y0291378D01*
X0395675Y0291378D01*
X0395675Y0289744D02*
X0392919Y0289744D01*
X0392919Y0290866D02*
X0395675Y0290866D01*
X0230581Y0291378D02*
X0230581Y0288622D01*
X0227825Y0288622D01*
X0227825Y0291378D01*
X0230581Y0291378D01*
X0230581Y0289744D02*
X0227825Y0289744D01*
X0227825Y0290866D02*
X0230581Y0290866D01*
X0223675Y0291378D02*
X0223675Y0288622D01*
X0220919Y0288622D01*
X0220919Y0291378D01*
X0223675Y0291378D01*
X0223675Y0289744D02*
X0220919Y0289744D01*
X0220919Y0290866D02*
X0223675Y0290866D01*
X0058581Y0291378D02*
X0058581Y0288622D01*
X0055825Y0288622D01*
X0055825Y0291378D01*
X0058581Y0291378D01*
X0058581Y0289744D02*
X0055825Y0289744D01*
X0055825Y0290866D02*
X0058581Y0290866D01*
X0051675Y0291378D02*
X0051675Y0288622D01*
X0048919Y0288622D01*
X0048919Y0291378D01*
X0051675Y0291378D01*
X0051675Y0289744D02*
X0048919Y0289744D01*
X0048919Y0290866D02*
X0051675Y0290866D01*
X0051675Y0179378D02*
X0051675Y0176622D01*
X0048919Y0176622D01*
X0048919Y0179378D01*
X0051675Y0179378D01*
X0051675Y0177744D02*
X0048919Y0177744D01*
X0048919Y0178866D02*
X0051675Y0178866D01*
X0058581Y0179378D02*
X0058581Y0176622D01*
X0055825Y0176622D01*
X0055825Y0179378D01*
X0058581Y0179378D01*
X0058581Y0177744D02*
X0055825Y0177744D01*
X0055825Y0178866D02*
X0058581Y0178866D01*
X0223675Y0179378D02*
X0223675Y0176622D01*
X0220919Y0176622D01*
X0220919Y0179378D01*
X0223675Y0179378D01*
X0223675Y0177744D02*
X0220919Y0177744D01*
X0220919Y0178866D02*
X0223675Y0178866D01*
X0230581Y0179378D02*
X0230581Y0176622D01*
X0227825Y0176622D01*
X0227825Y0179378D01*
X0230581Y0179378D01*
X0230581Y0177744D02*
X0227825Y0177744D01*
X0227825Y0178866D02*
X0230581Y0178866D01*
X0395675Y0179378D02*
X0395675Y0176622D01*
X0392919Y0176622D01*
X0392919Y0179378D01*
X0395675Y0179378D01*
X0395675Y0177744D02*
X0392919Y0177744D01*
X0392919Y0178866D02*
X0395675Y0178866D01*
X0402581Y0179378D02*
X0402581Y0176622D01*
X0399825Y0176622D01*
X0399825Y0179378D01*
X0402581Y0179378D01*
X0402581Y0177744D02*
X0399825Y0177744D01*
X0399825Y0178866D02*
X0402581Y0178866D01*
X0567675Y0179378D02*
X0567675Y0176622D01*
X0564919Y0176622D01*
X0564919Y0179378D01*
X0567675Y0179378D01*
X0567675Y0177744D02*
X0564919Y0177744D01*
X0564919Y0178866D02*
X0567675Y0178866D01*
X0574581Y0179378D02*
X0574581Y0176622D01*
X0571825Y0176622D01*
X0571825Y0179378D01*
X0574581Y0179378D01*
X0574581Y0177744D02*
X0571825Y0177744D01*
X0571825Y0178866D02*
X0574581Y0178866D01*
X0739675Y0179378D02*
X0739675Y0176622D01*
X0736919Y0176622D01*
X0736919Y0179378D01*
X0739675Y0179378D01*
X0739675Y0177744D02*
X0736919Y0177744D01*
X0736919Y0178866D02*
X0739675Y0178866D01*
X0746581Y0179378D02*
X0746581Y0176622D01*
X0743825Y0176622D01*
X0743825Y0179378D01*
X0746581Y0179378D01*
X0746581Y0177744D02*
X0743825Y0177744D01*
X0743825Y0178866D02*
X0746581Y0178866D01*
X0746581Y0067378D02*
X0746581Y0064622D01*
X0743825Y0064622D01*
X0743825Y0067378D01*
X0746581Y0067378D01*
X0746581Y0065744D02*
X0743825Y0065744D01*
X0743825Y0066866D02*
X0746581Y0066866D01*
X0739675Y0067378D02*
X0739675Y0064622D01*
X0736919Y0064622D01*
X0736919Y0067378D01*
X0739675Y0067378D01*
X0739675Y0065744D02*
X0736919Y0065744D01*
X0736919Y0066866D02*
X0739675Y0066866D01*
X0574581Y0067378D02*
X0574581Y0064622D01*
X0571825Y0064622D01*
X0571825Y0067378D01*
X0574581Y0067378D01*
X0574581Y0065744D02*
X0571825Y0065744D01*
X0571825Y0066866D02*
X0574581Y0066866D01*
X0567675Y0067378D02*
X0567675Y0064622D01*
X0564919Y0064622D01*
X0564919Y0067378D01*
X0567675Y0067378D01*
X0567675Y0065744D02*
X0564919Y0065744D01*
X0564919Y0066866D02*
X0567675Y0066866D01*
X0402581Y0067378D02*
X0402581Y0064622D01*
X0399825Y0064622D01*
X0399825Y0067378D01*
X0402581Y0067378D01*
X0402581Y0065744D02*
X0399825Y0065744D01*
X0399825Y0066866D02*
X0402581Y0066866D01*
X0395675Y0067378D02*
X0395675Y0064622D01*
X0392919Y0064622D01*
X0392919Y0067378D01*
X0395675Y0067378D01*
X0395675Y0065744D02*
X0392919Y0065744D01*
X0392919Y0066866D02*
X0395675Y0066866D01*
X0230581Y0067378D02*
X0230581Y0064622D01*
X0227825Y0064622D01*
X0227825Y0067378D01*
X0230581Y0067378D01*
X0230581Y0065744D02*
X0227825Y0065744D01*
X0227825Y0066866D02*
X0230581Y0066866D01*
X0223675Y0067378D02*
X0223675Y0064622D01*
X0220919Y0064622D01*
X0220919Y0067378D01*
X0223675Y0067378D01*
X0223675Y0065744D02*
X0220919Y0065744D01*
X0220919Y0066866D02*
X0223675Y0066866D01*
X0058581Y0067378D02*
X0058581Y0064622D01*
X0055825Y0064622D01*
X0055825Y0067378D01*
X0058581Y0067378D01*
X0058581Y0065744D02*
X0055825Y0065744D01*
X0055825Y0066866D02*
X0058581Y0066866D01*
X0051675Y0067378D02*
X0051675Y0064622D01*
X0048919Y0064622D01*
X0048919Y0067378D01*
X0051675Y0067378D01*
X0051675Y0065744D02*
X0048919Y0065744D01*
X0048919Y0066866D02*
X0051675Y0066866D01*
D12*
X0045404Y0058500D03*
X0052096Y0058500D03*
X0050404Y0071000D03*
X0057096Y0071000D03*
X0075404Y0058500D03*
X0082096Y0058500D03*
X0187904Y0098500D03*
X0187904Y0103500D03*
X0194596Y0103500D03*
X0194596Y0098500D03*
X0222404Y0071000D03*
X0229096Y0071000D03*
X0224096Y0058500D03*
X0217404Y0058500D03*
X0247404Y0058500D03*
X0254096Y0058500D03*
X0359904Y0098500D03*
X0359904Y0103500D03*
X0366596Y0103500D03*
X0366596Y0098500D03*
X0394404Y0071000D03*
X0401096Y0071000D03*
X0396096Y0058500D03*
X0389404Y0058500D03*
X0419404Y0058500D03*
X0426096Y0058500D03*
X0531904Y0098500D03*
X0531904Y0103500D03*
X0538596Y0103500D03*
X0538596Y0098500D03*
X0566404Y0071000D03*
X0573096Y0071000D03*
X0568096Y0058500D03*
X0561404Y0058500D03*
X0591404Y0058500D03*
X0598096Y0058500D03*
X0703904Y0098500D03*
X0703904Y0103500D03*
X0710596Y0103500D03*
X0710596Y0098500D03*
X0738404Y0071000D03*
X0745096Y0071000D03*
X0740096Y0058500D03*
X0733404Y0058500D03*
X0763404Y0058500D03*
X0770096Y0058500D03*
X0875904Y0098500D03*
X0875904Y0103500D03*
X0882596Y0103500D03*
X0882596Y0098500D03*
X0770096Y0170500D03*
X0763404Y0170500D03*
X0745096Y0183000D03*
X0738404Y0183000D03*
X0740096Y0170500D03*
X0733404Y0170500D03*
X0710596Y0210500D03*
X0710596Y0215500D03*
X0703904Y0215500D03*
X0703904Y0210500D03*
X0733404Y0282500D03*
X0740096Y0282500D03*
X0738404Y0295000D03*
X0745096Y0295000D03*
X0763404Y0282500D03*
X0770096Y0282500D03*
X0710596Y0322500D03*
X0710596Y0327500D03*
X0703904Y0327500D03*
X0703904Y0322500D03*
X0598096Y0282500D03*
X0591404Y0282500D03*
X0573096Y0295000D03*
X0566404Y0295000D03*
X0568096Y0282500D03*
X0561404Y0282500D03*
X0538596Y0322500D03*
X0538596Y0327500D03*
X0531904Y0327500D03*
X0531904Y0322500D03*
X0426096Y0282500D03*
X0419404Y0282500D03*
X0401096Y0295000D03*
X0394404Y0295000D03*
X0396096Y0282500D03*
X0389404Y0282500D03*
X0366596Y0322500D03*
X0366596Y0327500D03*
X0359904Y0327500D03*
X0359904Y0322500D03*
X0254096Y0282500D03*
X0247404Y0282500D03*
X0229096Y0295000D03*
X0222404Y0295000D03*
X0224096Y0282500D03*
X0217404Y0282500D03*
X0194596Y0322500D03*
X0194596Y0327500D03*
X0187904Y0327500D03*
X0187904Y0322500D03*
X0082096Y0282500D03*
X0075404Y0282500D03*
X0057096Y0295000D03*
X0050404Y0295000D03*
X0052096Y0282500D03*
X0045404Y0282500D03*
X0187904Y0215500D03*
X0187904Y0210500D03*
X0194596Y0210500D03*
X0194596Y0215500D03*
X0222404Y0183000D03*
X0229096Y0183000D03*
X0224096Y0170500D03*
X0217404Y0170500D03*
X0247404Y0170500D03*
X0254096Y0170500D03*
X0359904Y0210500D03*
X0359904Y0215500D03*
X0366596Y0215500D03*
X0366596Y0210500D03*
X0394404Y0183000D03*
X0401096Y0183000D03*
X0396096Y0170500D03*
X0389404Y0170500D03*
X0419404Y0170500D03*
X0426096Y0170500D03*
X0531904Y0210500D03*
X0531904Y0215500D03*
X0538596Y0215500D03*
X0538596Y0210500D03*
X0566404Y0183000D03*
X0573096Y0183000D03*
X0568096Y0170500D03*
X0561404Y0170500D03*
X0591404Y0170500D03*
X0598096Y0170500D03*
X0875904Y0210500D03*
X0875904Y0215500D03*
X0882596Y0215500D03*
X0882596Y0210500D03*
X0882596Y0322500D03*
X0882596Y0327500D03*
X0875904Y0327500D03*
X0875904Y0322500D03*
X0770096Y0394500D03*
X0763404Y0394500D03*
X0745096Y0407000D03*
X0738404Y0407000D03*
X0740096Y0394500D03*
X0733404Y0394500D03*
X0710596Y0434500D03*
X0710596Y0439500D03*
X0703904Y0439500D03*
X0703904Y0434500D03*
X0598096Y0394500D03*
X0591404Y0394500D03*
X0573096Y0407000D03*
X0566404Y0407000D03*
X0568096Y0394500D03*
X0561404Y0394500D03*
X0538596Y0434500D03*
X0538596Y0439500D03*
X0531904Y0439500D03*
X0531904Y0434500D03*
X0426096Y0394500D03*
X0419404Y0394500D03*
X0401096Y0407000D03*
X0394404Y0407000D03*
X0396096Y0394500D03*
X0389404Y0394500D03*
X0366596Y0434500D03*
X0366596Y0439500D03*
X0359904Y0439500D03*
X0359904Y0434500D03*
X0254096Y0394500D03*
X0247404Y0394500D03*
X0229096Y0407000D03*
X0222404Y0407000D03*
X0224096Y0394500D03*
X0217404Y0394500D03*
X0194596Y0434500D03*
X0194596Y0439500D03*
X0187904Y0439500D03*
X0187904Y0434500D03*
X0082096Y0394500D03*
X0075404Y0394500D03*
X0057096Y0407000D03*
X0050404Y0407000D03*
X0052096Y0394500D03*
X0045404Y0394500D03*
X0045404Y0506500D03*
X0052096Y0506500D03*
X0050404Y0519000D03*
X0057096Y0519000D03*
X0075404Y0506500D03*
X0082096Y0506500D03*
X0187904Y0546500D03*
X0187904Y0551500D03*
X0194596Y0551500D03*
X0194596Y0546500D03*
X0222404Y0519000D03*
X0229096Y0519000D03*
X0224096Y0506500D03*
X0217404Y0506500D03*
X0247404Y0506500D03*
X0254096Y0506500D03*
X0359904Y0546500D03*
X0359904Y0551500D03*
X0366596Y0551500D03*
X0366596Y0546500D03*
X0394404Y0519000D03*
X0401096Y0519000D03*
X0396096Y0506500D03*
X0389404Y0506500D03*
X0419404Y0506500D03*
X0426096Y0506500D03*
X0531904Y0546500D03*
X0531904Y0551500D03*
X0538596Y0551500D03*
X0538596Y0546500D03*
X0566404Y0519000D03*
X0573096Y0519000D03*
X0568096Y0506500D03*
X0561404Y0506500D03*
X0591404Y0506500D03*
X0598096Y0506500D03*
X0703904Y0546500D03*
X0703904Y0551500D03*
X0710596Y0551500D03*
X0710596Y0546500D03*
X0738404Y0519000D03*
X0745096Y0519000D03*
X0740096Y0506500D03*
X0733404Y0506500D03*
X0763404Y0506500D03*
X0770096Y0506500D03*
X0875904Y0546500D03*
X0875904Y0551500D03*
X0882596Y0551500D03*
X0882596Y0546500D03*
X0882596Y0439500D03*
X0882596Y0434500D03*
X0875904Y0434500D03*
X0875904Y0439500D03*
X0082096Y0170500D03*
X0075404Y0170500D03*
X0057096Y0183000D03*
X0050404Y0183000D03*
X0052096Y0170500D03*
X0045404Y0170500D03*
D13*
X0191250Y0195972D03*
X0191250Y0205028D03*
X0191250Y0307972D03*
X0191250Y0317028D03*
X0191250Y0419972D03*
X0191250Y0429028D03*
X0191250Y0531972D03*
X0191250Y0541028D03*
X0363250Y0541028D03*
X0363250Y0531972D03*
X0363250Y0429028D03*
X0363250Y0419972D03*
X0363250Y0317028D03*
X0363250Y0307972D03*
X0363250Y0205028D03*
X0363250Y0195972D03*
X0363250Y0093028D03*
X0363250Y0083972D03*
X0191250Y0083972D03*
X0191250Y0093028D03*
X0535250Y0093028D03*
X0535250Y0083972D03*
X0707250Y0083972D03*
X0707250Y0093028D03*
X0707250Y0195972D03*
X0707250Y0205028D03*
X0707250Y0307972D03*
X0707250Y0317028D03*
X0707250Y0419972D03*
X0707250Y0429028D03*
X0707250Y0531972D03*
X0707250Y0541028D03*
X0535250Y0541028D03*
X0535250Y0531972D03*
X0535250Y0429028D03*
X0535250Y0419972D03*
X0535250Y0317028D03*
X0535250Y0307972D03*
X0535250Y0205028D03*
X0535250Y0195972D03*
X0879250Y0195972D03*
X0879250Y0205028D03*
X0879250Y0307972D03*
X0879250Y0317028D03*
X0879250Y0419972D03*
X0879250Y0429028D03*
X0879250Y0531972D03*
X0879250Y0541028D03*
X0879250Y0093028D03*
X0879250Y0083972D03*
D14*
X0880199Y0071992D03*
X0880199Y0068055D03*
X0880199Y0064118D03*
X0880199Y0060181D03*
X0732301Y0095008D03*
X0732301Y0098945D03*
X0732301Y0102882D03*
X0732301Y0106819D03*
X0708199Y0071992D03*
X0708199Y0068055D03*
X0708199Y0064118D03*
X0708199Y0060181D03*
X0560301Y0095008D03*
X0560301Y0098945D03*
X0560301Y0102882D03*
X0560301Y0106819D03*
X0536199Y0071992D03*
X0536199Y0068055D03*
X0536199Y0064118D03*
X0536199Y0060181D03*
X0388301Y0095008D03*
X0388301Y0098945D03*
X0388301Y0102882D03*
X0388301Y0106819D03*
X0364199Y0071992D03*
X0364199Y0068055D03*
X0364199Y0064118D03*
X0364199Y0060181D03*
X0216301Y0095008D03*
X0216301Y0098945D03*
X0216301Y0102882D03*
X0216301Y0106819D03*
X0192199Y0071992D03*
X0192199Y0068055D03*
X0192199Y0064118D03*
X0192199Y0060181D03*
X0044301Y0095008D03*
X0044301Y0098945D03*
X0044301Y0102882D03*
X0044301Y0106819D03*
X0192199Y0172181D03*
X0192199Y0176118D03*
X0192199Y0180055D03*
X0192199Y0183992D03*
X0216301Y0207008D03*
X0216301Y0210945D03*
X0216301Y0214882D03*
X0216301Y0218819D03*
X0192199Y0284181D03*
X0192199Y0288118D03*
X0192199Y0292055D03*
X0192199Y0295992D03*
X0216301Y0319008D03*
X0216301Y0322945D03*
X0216301Y0326882D03*
X0216301Y0330819D03*
X0192199Y0396181D03*
X0192199Y0400118D03*
X0192199Y0404055D03*
X0192199Y0407992D03*
X0216301Y0431008D03*
X0216301Y0434945D03*
X0216301Y0438882D03*
X0216301Y0442819D03*
X0192199Y0508181D03*
X0192199Y0512118D03*
X0192199Y0516055D03*
X0192199Y0519992D03*
X0216301Y0543008D03*
X0216301Y0546945D03*
X0216301Y0550882D03*
X0216301Y0554819D03*
X0364199Y0519992D03*
X0364199Y0516055D03*
X0364199Y0512118D03*
X0364199Y0508181D03*
X0388301Y0543008D03*
X0388301Y0546945D03*
X0388301Y0550882D03*
X0388301Y0554819D03*
X0536199Y0519992D03*
X0536199Y0516055D03*
X0536199Y0512118D03*
X0536199Y0508181D03*
X0560301Y0543008D03*
X0560301Y0546945D03*
X0560301Y0550882D03*
X0560301Y0554819D03*
X0708199Y0519992D03*
X0708199Y0516055D03*
X0708199Y0512118D03*
X0708199Y0508181D03*
X0732301Y0543008D03*
X0732301Y0546945D03*
X0732301Y0550882D03*
X0732301Y0554819D03*
X0880199Y0519992D03*
X0880199Y0516055D03*
X0880199Y0512118D03*
X0880199Y0508181D03*
X0732301Y0442819D03*
X0732301Y0438882D03*
X0732301Y0434945D03*
X0732301Y0431008D03*
X0708199Y0407992D03*
X0708199Y0404055D03*
X0708199Y0400118D03*
X0708199Y0396181D03*
X0732301Y0330819D03*
X0732301Y0326882D03*
X0732301Y0322945D03*
X0732301Y0319008D03*
X0708199Y0295992D03*
X0708199Y0292055D03*
X0708199Y0288118D03*
X0708199Y0284181D03*
X0732301Y0218819D03*
X0732301Y0214882D03*
X0732301Y0210945D03*
X0732301Y0207008D03*
X0708199Y0183992D03*
X0708199Y0180055D03*
X0708199Y0176118D03*
X0708199Y0172181D03*
X0560301Y0207008D03*
X0560301Y0210945D03*
X0560301Y0214882D03*
X0560301Y0218819D03*
X0536199Y0183992D03*
X0536199Y0180055D03*
X0536199Y0176118D03*
X0536199Y0172181D03*
X0388301Y0207008D03*
X0388301Y0210945D03*
X0388301Y0214882D03*
X0388301Y0218819D03*
X0364199Y0183992D03*
X0364199Y0180055D03*
X0364199Y0176118D03*
X0364199Y0172181D03*
X0364199Y0284181D03*
X0364199Y0288118D03*
X0364199Y0292055D03*
X0364199Y0295992D03*
X0388301Y0319008D03*
X0388301Y0322945D03*
X0388301Y0326882D03*
X0388301Y0330819D03*
X0364199Y0396181D03*
X0364199Y0400118D03*
X0364199Y0404055D03*
X0364199Y0407992D03*
X0388301Y0431008D03*
X0388301Y0434945D03*
X0388301Y0438882D03*
X0388301Y0442819D03*
X0536199Y0407992D03*
X0536199Y0404055D03*
X0536199Y0400118D03*
X0536199Y0396181D03*
X0560301Y0431008D03*
X0560301Y0434945D03*
X0560301Y0438882D03*
X0560301Y0442819D03*
X0560301Y0330819D03*
X0560301Y0326882D03*
X0560301Y0322945D03*
X0560301Y0319008D03*
X0536199Y0295992D03*
X0536199Y0292055D03*
X0536199Y0288118D03*
X0536199Y0284181D03*
X0880199Y0284181D03*
X0880199Y0288118D03*
X0880199Y0292055D03*
X0880199Y0295992D03*
X0880199Y0396181D03*
X0880199Y0400118D03*
X0880199Y0404055D03*
X0880199Y0407992D03*
X0880199Y0183992D03*
X0880199Y0180055D03*
X0880199Y0176118D03*
X0880199Y0172181D03*
X0044301Y0207008D03*
X0044301Y0210945D03*
X0044301Y0214882D03*
X0044301Y0218819D03*
X0044301Y0319008D03*
X0044301Y0322945D03*
X0044301Y0326882D03*
X0044301Y0330819D03*
X0044301Y0431008D03*
X0044301Y0434945D03*
X0044301Y0438882D03*
X0044301Y0442819D03*
X0044301Y0543008D03*
X0044301Y0546945D03*
X0044301Y0550882D03*
X0044301Y0554819D03*
D15*
X0053848Y0559937D03*
X0053848Y0537890D03*
X0182652Y0525110D03*
X0182652Y0503063D03*
X0225848Y0537890D03*
X0225848Y0559937D03*
X0354652Y0525110D03*
X0354652Y0503063D03*
X0397848Y0537890D03*
X0397848Y0559937D03*
X0526652Y0525110D03*
X0526652Y0503063D03*
X0569848Y0537890D03*
X0569848Y0559937D03*
X0698652Y0525110D03*
X0698652Y0503063D03*
X0741848Y0537890D03*
X0741848Y0559937D03*
X0870652Y0525110D03*
X0870652Y0503063D03*
X0741848Y0447937D03*
X0741848Y0425890D03*
X0698652Y0413110D03*
X0698652Y0391063D03*
X0741848Y0335937D03*
X0741848Y0313890D03*
X0698652Y0301110D03*
X0698652Y0279063D03*
X0741848Y0223937D03*
X0741848Y0201890D03*
X0698652Y0189110D03*
X0698652Y0167063D03*
X0741848Y0111937D03*
X0741848Y0089890D03*
X0698652Y0077110D03*
X0698652Y0055063D03*
X0569848Y0089890D03*
X0569848Y0111937D03*
X0526652Y0077110D03*
X0526652Y0055063D03*
X0397848Y0089890D03*
X0397848Y0111937D03*
X0354652Y0077110D03*
X0354652Y0055063D03*
X0225848Y0089890D03*
X0225848Y0111937D03*
X0182652Y0077110D03*
X0182652Y0055063D03*
X0053848Y0089890D03*
X0053848Y0111937D03*
X0182652Y0167063D03*
X0182652Y0189110D03*
X0225848Y0201890D03*
X0225848Y0223937D03*
X0182652Y0279063D03*
X0182652Y0301110D03*
X0225848Y0313890D03*
X0225848Y0335937D03*
X0182652Y0391063D03*
X0182652Y0413110D03*
X0225848Y0425890D03*
X0225848Y0447937D03*
X0354652Y0413110D03*
X0354652Y0391063D03*
X0397848Y0425890D03*
X0397848Y0447937D03*
X0526652Y0413110D03*
X0526652Y0391063D03*
X0569848Y0425890D03*
X0569848Y0447937D03*
X0569848Y0335937D03*
X0569848Y0313890D03*
X0526652Y0301110D03*
X0526652Y0279063D03*
X0569848Y0223937D03*
X0569848Y0201890D03*
X0526652Y0189110D03*
X0526652Y0167063D03*
X0397848Y0201890D03*
X0397848Y0223937D03*
X0354652Y0189110D03*
X0354652Y0167063D03*
X0354652Y0279063D03*
X0354652Y0301110D03*
X0397848Y0313890D03*
X0397848Y0335937D03*
X0053848Y0335937D03*
X0053848Y0313890D03*
X0053848Y0223937D03*
X0053848Y0201890D03*
X0053848Y0425890D03*
X0053848Y0447937D03*
X0870652Y0413110D03*
X0870652Y0391063D03*
X0870652Y0301110D03*
X0870652Y0279063D03*
X0870652Y0189110D03*
X0870652Y0167063D03*
X0870652Y0077110D03*
X0870652Y0055063D03*
D16*
X0829250Y0065500D03*
X0824250Y0065500D03*
X0819250Y0065500D03*
X0814250Y0065500D03*
X0809250Y0065500D03*
X0804250Y0065500D03*
X0799250Y0065500D03*
X0794250Y0065500D03*
X0789250Y0065500D03*
X0784250Y0065500D03*
X0779250Y0065500D03*
X0774250Y0065500D03*
X0774250Y0101500D03*
X0779250Y0101500D03*
X0784250Y0101500D03*
X0789250Y0101500D03*
X0794250Y0101500D03*
X0799250Y0101500D03*
X0804250Y0101500D03*
X0809250Y0101500D03*
X0814250Y0101500D03*
X0819250Y0101500D03*
X0824250Y0101500D03*
X0829250Y0101500D03*
X0829250Y0177500D03*
X0824250Y0177500D03*
X0819250Y0177500D03*
X0814250Y0177500D03*
X0809250Y0177500D03*
X0804250Y0177500D03*
X0799250Y0177500D03*
X0794250Y0177500D03*
X0789250Y0177500D03*
X0784250Y0177500D03*
X0779250Y0177500D03*
X0774250Y0177500D03*
X0774250Y0213500D03*
X0779250Y0213500D03*
X0784250Y0213500D03*
X0789250Y0213500D03*
X0794250Y0213500D03*
X0799250Y0213500D03*
X0804250Y0213500D03*
X0809250Y0213500D03*
X0814250Y0213500D03*
X0819250Y0213500D03*
X0824250Y0213500D03*
X0829250Y0213500D03*
X0829250Y0289500D03*
X0824250Y0289500D03*
X0819250Y0289500D03*
X0814250Y0289500D03*
X0809250Y0289500D03*
X0804250Y0289500D03*
X0799250Y0289500D03*
X0794250Y0289500D03*
X0789250Y0289500D03*
X0784250Y0289500D03*
X0779250Y0289500D03*
X0774250Y0289500D03*
X0774250Y0325500D03*
X0779250Y0325500D03*
X0784250Y0325500D03*
X0789250Y0325500D03*
X0794250Y0325500D03*
X0799250Y0325500D03*
X0804250Y0325500D03*
X0809250Y0325500D03*
X0814250Y0325500D03*
X0819250Y0325500D03*
X0824250Y0325500D03*
X0829250Y0325500D03*
X0829250Y0401500D03*
X0824250Y0401500D03*
X0819250Y0401500D03*
X0814250Y0401500D03*
X0809250Y0401500D03*
X0804250Y0401500D03*
X0799250Y0401500D03*
X0794250Y0401500D03*
X0789250Y0401500D03*
X0784250Y0401500D03*
X0779250Y0401500D03*
X0774250Y0401500D03*
X0774250Y0437500D03*
X0779250Y0437500D03*
X0784250Y0437500D03*
X0789250Y0437500D03*
X0794250Y0437500D03*
X0799250Y0437500D03*
X0804250Y0437500D03*
X0809250Y0437500D03*
X0814250Y0437500D03*
X0819250Y0437500D03*
X0824250Y0437500D03*
X0829250Y0437500D03*
X0829250Y0513500D03*
X0824250Y0513500D03*
X0819250Y0513500D03*
X0814250Y0513500D03*
X0809250Y0513500D03*
X0804250Y0513500D03*
X0799250Y0513500D03*
X0794250Y0513500D03*
X0789250Y0513500D03*
X0784250Y0513500D03*
X0779250Y0513500D03*
X0774250Y0513500D03*
X0774250Y0549500D03*
X0779250Y0549500D03*
X0784250Y0549500D03*
X0789250Y0549500D03*
X0794250Y0549500D03*
X0799250Y0549500D03*
X0804250Y0549500D03*
X0809250Y0549500D03*
X0814250Y0549500D03*
X0819250Y0549500D03*
X0824250Y0549500D03*
X0829250Y0549500D03*
X0657250Y0549500D03*
X0652250Y0549500D03*
X0647250Y0549500D03*
X0642250Y0549500D03*
X0637250Y0549500D03*
X0632250Y0549500D03*
X0627250Y0549500D03*
X0622250Y0549500D03*
X0617250Y0549500D03*
X0612250Y0549500D03*
X0607250Y0549500D03*
X0602250Y0549500D03*
X0602250Y0513500D03*
X0607250Y0513500D03*
X0612250Y0513500D03*
X0617250Y0513500D03*
X0622250Y0513500D03*
X0627250Y0513500D03*
X0632250Y0513500D03*
X0637250Y0513500D03*
X0642250Y0513500D03*
X0647250Y0513500D03*
X0652250Y0513500D03*
X0657250Y0513500D03*
X0657250Y0437500D03*
X0652250Y0437500D03*
X0647250Y0437500D03*
X0642250Y0437500D03*
X0637250Y0437500D03*
X0632250Y0437500D03*
X0627250Y0437500D03*
X0622250Y0437500D03*
X0617250Y0437500D03*
X0612250Y0437500D03*
X0607250Y0437500D03*
X0602250Y0437500D03*
X0602250Y0401500D03*
X0607250Y0401500D03*
X0612250Y0401500D03*
X0617250Y0401500D03*
X0622250Y0401500D03*
X0627250Y0401500D03*
X0632250Y0401500D03*
X0637250Y0401500D03*
X0642250Y0401500D03*
X0647250Y0401500D03*
X0652250Y0401500D03*
X0657250Y0401500D03*
X0657250Y0325500D03*
X0652250Y0325500D03*
X0647250Y0325500D03*
X0642250Y0325500D03*
X0637250Y0325500D03*
X0632250Y0325500D03*
X0627250Y0325500D03*
X0622250Y0325500D03*
X0617250Y0325500D03*
X0612250Y0325500D03*
X0607250Y0325500D03*
X0602250Y0325500D03*
X0602250Y0289500D03*
X0607250Y0289500D03*
X0612250Y0289500D03*
X0617250Y0289500D03*
X0622250Y0289500D03*
X0627250Y0289500D03*
X0632250Y0289500D03*
X0637250Y0289500D03*
X0642250Y0289500D03*
X0647250Y0289500D03*
X0652250Y0289500D03*
X0657250Y0289500D03*
X0657250Y0213500D03*
X0652250Y0213500D03*
X0647250Y0213500D03*
X0642250Y0213500D03*
X0637250Y0213500D03*
X0632250Y0213500D03*
X0627250Y0213500D03*
X0622250Y0213500D03*
X0617250Y0213500D03*
X0612250Y0213500D03*
X0607250Y0213500D03*
X0602250Y0213500D03*
X0602250Y0177500D03*
X0607250Y0177500D03*
X0612250Y0177500D03*
X0617250Y0177500D03*
X0622250Y0177500D03*
X0627250Y0177500D03*
X0632250Y0177500D03*
X0637250Y0177500D03*
X0642250Y0177500D03*
X0647250Y0177500D03*
X0652250Y0177500D03*
X0657250Y0177500D03*
X0657250Y0101500D03*
X0652250Y0101500D03*
X0647250Y0101500D03*
X0642250Y0101500D03*
X0637250Y0101500D03*
X0632250Y0101500D03*
X0627250Y0101500D03*
X0622250Y0101500D03*
X0617250Y0101500D03*
X0612250Y0101500D03*
X0607250Y0101500D03*
X0602250Y0101500D03*
X0602250Y0065500D03*
X0607250Y0065500D03*
X0612250Y0065500D03*
X0617250Y0065500D03*
X0622250Y0065500D03*
X0627250Y0065500D03*
X0632250Y0065500D03*
X0637250Y0065500D03*
X0642250Y0065500D03*
X0647250Y0065500D03*
X0652250Y0065500D03*
X0657250Y0065500D03*
X0485250Y0065500D03*
X0480250Y0065500D03*
X0475250Y0065500D03*
X0470250Y0065500D03*
X0465250Y0065500D03*
X0460250Y0065500D03*
X0455250Y0065500D03*
X0450250Y0065500D03*
X0445250Y0065500D03*
X0440250Y0065500D03*
X0435250Y0065500D03*
X0430250Y0065500D03*
X0430250Y0101500D03*
X0435250Y0101500D03*
X0440250Y0101500D03*
X0445250Y0101500D03*
X0450250Y0101500D03*
X0455250Y0101500D03*
X0460250Y0101500D03*
X0465250Y0101500D03*
X0470250Y0101500D03*
X0475250Y0101500D03*
X0480250Y0101500D03*
X0485250Y0101500D03*
X0485250Y0177500D03*
X0480250Y0177500D03*
X0475250Y0177500D03*
X0470250Y0177500D03*
X0465250Y0177500D03*
X0460250Y0177500D03*
X0455250Y0177500D03*
X0450250Y0177500D03*
X0445250Y0177500D03*
X0440250Y0177500D03*
X0435250Y0177500D03*
X0430250Y0177500D03*
X0430250Y0213500D03*
X0435250Y0213500D03*
X0440250Y0213500D03*
X0445250Y0213500D03*
X0450250Y0213500D03*
X0455250Y0213500D03*
X0460250Y0213500D03*
X0465250Y0213500D03*
X0470250Y0213500D03*
X0475250Y0213500D03*
X0480250Y0213500D03*
X0485250Y0213500D03*
X0485250Y0289500D03*
X0480250Y0289500D03*
X0475250Y0289500D03*
X0470250Y0289500D03*
X0465250Y0289500D03*
X0460250Y0289500D03*
X0455250Y0289500D03*
X0450250Y0289500D03*
X0445250Y0289500D03*
X0440250Y0289500D03*
X0435250Y0289500D03*
X0430250Y0289500D03*
X0430250Y0325500D03*
X0435250Y0325500D03*
X0440250Y0325500D03*
X0445250Y0325500D03*
X0450250Y0325500D03*
X0455250Y0325500D03*
X0460250Y0325500D03*
X0465250Y0325500D03*
X0470250Y0325500D03*
X0475250Y0325500D03*
X0480250Y0325500D03*
X0485250Y0325500D03*
X0485250Y0401500D03*
X0480250Y0401500D03*
X0475250Y0401500D03*
X0470250Y0401500D03*
X0465250Y0401500D03*
X0460250Y0401500D03*
X0455250Y0401500D03*
X0450250Y0401500D03*
X0445250Y0401500D03*
X0440250Y0401500D03*
X0435250Y0401500D03*
X0430250Y0401500D03*
X0430250Y0437500D03*
X0435250Y0437500D03*
X0440250Y0437500D03*
X0445250Y0437500D03*
X0450250Y0437500D03*
X0455250Y0437500D03*
X0460250Y0437500D03*
X0465250Y0437500D03*
X0470250Y0437500D03*
X0475250Y0437500D03*
X0480250Y0437500D03*
X0485250Y0437500D03*
X0485250Y0513500D03*
X0480250Y0513500D03*
X0475250Y0513500D03*
X0470250Y0513500D03*
X0465250Y0513500D03*
X0460250Y0513500D03*
X0455250Y0513500D03*
X0450250Y0513500D03*
X0445250Y0513500D03*
X0440250Y0513500D03*
X0435250Y0513500D03*
X0430250Y0513500D03*
X0430250Y0549500D03*
X0435250Y0549500D03*
X0440250Y0549500D03*
X0445250Y0549500D03*
X0450250Y0549500D03*
X0455250Y0549500D03*
X0460250Y0549500D03*
X0465250Y0549500D03*
X0470250Y0549500D03*
X0475250Y0549500D03*
X0480250Y0549500D03*
X0485250Y0549500D03*
X0313250Y0549500D03*
X0308250Y0549500D03*
X0303250Y0549500D03*
X0298250Y0549500D03*
X0293250Y0549500D03*
X0288250Y0549500D03*
X0283250Y0549500D03*
X0278250Y0549500D03*
X0273250Y0549500D03*
X0268250Y0549500D03*
X0263250Y0549500D03*
X0258250Y0549500D03*
X0258250Y0513500D03*
X0263250Y0513500D03*
X0268250Y0513500D03*
X0273250Y0513500D03*
X0278250Y0513500D03*
X0283250Y0513500D03*
X0288250Y0513500D03*
X0293250Y0513500D03*
X0298250Y0513500D03*
X0303250Y0513500D03*
X0308250Y0513500D03*
X0313250Y0513500D03*
X0313250Y0437500D03*
X0308250Y0437500D03*
X0303250Y0437500D03*
X0298250Y0437500D03*
X0293250Y0437500D03*
X0288250Y0437500D03*
X0283250Y0437500D03*
X0278250Y0437500D03*
X0273250Y0437500D03*
X0268250Y0437500D03*
X0263250Y0437500D03*
X0258250Y0437500D03*
X0258250Y0401500D03*
X0263250Y0401500D03*
X0268250Y0401500D03*
X0273250Y0401500D03*
X0278250Y0401500D03*
X0283250Y0401500D03*
X0288250Y0401500D03*
X0293250Y0401500D03*
X0298250Y0401500D03*
X0303250Y0401500D03*
X0308250Y0401500D03*
X0313250Y0401500D03*
X0313250Y0325500D03*
X0308250Y0325500D03*
X0303250Y0325500D03*
X0298250Y0325500D03*
X0293250Y0325500D03*
X0288250Y0325500D03*
X0283250Y0325500D03*
X0278250Y0325500D03*
X0273250Y0325500D03*
X0268250Y0325500D03*
X0263250Y0325500D03*
X0258250Y0325500D03*
X0258250Y0289500D03*
X0263250Y0289500D03*
X0268250Y0289500D03*
X0273250Y0289500D03*
X0278250Y0289500D03*
X0283250Y0289500D03*
X0288250Y0289500D03*
X0293250Y0289500D03*
X0298250Y0289500D03*
X0303250Y0289500D03*
X0308250Y0289500D03*
X0313250Y0289500D03*
X0313250Y0213500D03*
X0308250Y0213500D03*
X0303250Y0213500D03*
X0298250Y0213500D03*
X0293250Y0213500D03*
X0288250Y0213500D03*
X0283250Y0213500D03*
X0278250Y0213500D03*
X0273250Y0213500D03*
X0268250Y0213500D03*
X0263250Y0213500D03*
X0258250Y0213500D03*
X0258250Y0177500D03*
X0263250Y0177500D03*
X0268250Y0177500D03*
X0273250Y0177500D03*
X0278250Y0177500D03*
X0283250Y0177500D03*
X0288250Y0177500D03*
X0293250Y0177500D03*
X0298250Y0177500D03*
X0303250Y0177500D03*
X0308250Y0177500D03*
X0313250Y0177500D03*
X0313250Y0101500D03*
X0308250Y0101500D03*
X0303250Y0101500D03*
X0298250Y0101500D03*
X0293250Y0101500D03*
X0288250Y0101500D03*
X0283250Y0101500D03*
X0278250Y0101500D03*
X0273250Y0101500D03*
X0268250Y0101500D03*
X0263250Y0101500D03*
X0258250Y0101500D03*
X0258250Y0065500D03*
X0263250Y0065500D03*
X0268250Y0065500D03*
X0273250Y0065500D03*
X0278250Y0065500D03*
X0283250Y0065500D03*
X0288250Y0065500D03*
X0293250Y0065500D03*
X0298250Y0065500D03*
X0303250Y0065500D03*
X0308250Y0065500D03*
X0313250Y0065500D03*
X0141250Y0065500D03*
X0136250Y0065500D03*
X0131250Y0065500D03*
X0126250Y0065500D03*
X0121250Y0065500D03*
X0116250Y0065500D03*
X0111250Y0065500D03*
X0106250Y0065500D03*
X0101250Y0065500D03*
X0096250Y0065500D03*
X0091250Y0065500D03*
X0086250Y0065500D03*
X0086250Y0101500D03*
X0091250Y0101500D03*
X0096250Y0101500D03*
X0101250Y0101500D03*
X0106250Y0101500D03*
X0111250Y0101500D03*
X0116250Y0101500D03*
X0121250Y0101500D03*
X0126250Y0101500D03*
X0131250Y0101500D03*
X0136250Y0101500D03*
X0141250Y0101500D03*
X0141250Y0177500D03*
X0136250Y0177500D03*
X0131250Y0177500D03*
X0126250Y0177500D03*
X0121250Y0177500D03*
X0116250Y0177500D03*
X0111250Y0177500D03*
X0106250Y0177500D03*
X0101250Y0177500D03*
X0096250Y0177500D03*
X0091250Y0177500D03*
X0086250Y0177500D03*
X0086250Y0213500D03*
X0091250Y0213500D03*
X0096250Y0213500D03*
X0101250Y0213500D03*
X0106250Y0213500D03*
X0111250Y0213500D03*
X0116250Y0213500D03*
X0121250Y0213500D03*
X0126250Y0213500D03*
X0131250Y0213500D03*
X0136250Y0213500D03*
X0141250Y0213500D03*
X0141250Y0289500D03*
X0136250Y0289500D03*
X0131250Y0289500D03*
X0126250Y0289500D03*
X0121250Y0289500D03*
X0116250Y0289500D03*
X0111250Y0289500D03*
X0106250Y0289500D03*
X0101250Y0289500D03*
X0096250Y0289500D03*
X0091250Y0289500D03*
X0086250Y0289500D03*
X0086250Y0325500D03*
X0091250Y0325500D03*
X0096250Y0325500D03*
X0101250Y0325500D03*
X0106250Y0325500D03*
X0111250Y0325500D03*
X0116250Y0325500D03*
X0121250Y0325500D03*
X0126250Y0325500D03*
X0131250Y0325500D03*
X0136250Y0325500D03*
X0141250Y0325500D03*
X0141250Y0401500D03*
X0136250Y0401500D03*
X0131250Y0401500D03*
X0126250Y0401500D03*
X0121250Y0401500D03*
X0116250Y0401500D03*
X0111250Y0401500D03*
X0106250Y0401500D03*
X0101250Y0401500D03*
X0096250Y0401500D03*
X0091250Y0401500D03*
X0086250Y0401500D03*
X0086250Y0437500D03*
X0091250Y0437500D03*
X0096250Y0437500D03*
X0101250Y0437500D03*
X0106250Y0437500D03*
X0111250Y0437500D03*
X0116250Y0437500D03*
X0121250Y0437500D03*
X0126250Y0437500D03*
X0131250Y0437500D03*
X0136250Y0437500D03*
X0141250Y0437500D03*
X0141250Y0513500D03*
X0136250Y0513500D03*
X0131250Y0513500D03*
X0126250Y0513500D03*
X0121250Y0513500D03*
X0116250Y0513500D03*
X0111250Y0513500D03*
X0106250Y0513500D03*
X0101250Y0513500D03*
X0096250Y0513500D03*
X0091250Y0513500D03*
X0086250Y0513500D03*
X0086250Y0549500D03*
X0091250Y0549500D03*
X0096250Y0549500D03*
X0101250Y0549500D03*
X0106250Y0549500D03*
X0111250Y0549500D03*
X0116250Y0549500D03*
X0121250Y0549500D03*
X0126250Y0549500D03*
X0131250Y0549500D03*
X0136250Y0549500D03*
X0141250Y0549500D03*
M02*
