M48
;GenerationSoftware,Autodesk,EAGLE,9.4.2*%
;CreationDate,2020-03-10T20:45:21Z*%
FMAT,2
ICI,OFF
METRIC,TZ,000.000
T5C0.305
T4C0.381
T3C0.750
T2C1.016
T1C3.302
%
G90
M71
T1
X125984Y30988
X120396Y59436
X84836Y82296
X84836Y59436
X120396Y82296
X161544Y59436
X125984Y82296
X125984Y59436
X161544Y82296
X202692Y59436
X167132Y82296
X167132Y59436
X202692Y82296
X38100Y87884
X2540Y110744
X2540Y87884
X38100Y110744
X79248Y87884
X43688Y110744
X43688Y87884
X79248Y110744
X120396Y87884
X84836Y110744
X84836Y87884
X120396Y110744
X161544Y87884
X125984Y110744
X125984Y87884
X161544Y110744
X202692Y87884
X167132Y110744
X167132Y87884
X202692Y110744
X38100Y116332
X2540Y139192
X2540Y116332
X38100Y139192
X79248Y116332
X43688Y139192
X43688Y116332
X79248Y139192
X120396Y116332
X84836Y139192
X84836Y116332
X120396Y139192
X161544Y116332
X125984Y139192
X125984Y116332
X161544Y139192
X202692Y116332
X167132Y139192
X167132Y116332
X202692Y139192
X79248Y82296
X2540Y30988
X38100Y2540
X2540Y25400
X2540Y2540
X38100Y25400
X79248Y2540
X43688Y25400
X43688Y2540
X79248Y25400
X120396Y2540
X84836Y25400
X84836Y2540
X120396Y25400
X161544Y2540
X125984Y25400
X125984Y2540
X161544Y25400
X202692Y2540
X167132Y25400
X167132Y2540
X202692Y25400
X38100Y30988
X2540Y53848
X38100Y53848
X79248Y30988
X43688Y53848
X43688Y30988
X79248Y53848
X120396Y30988
X84836Y53848
X84836Y30988
X120396Y53848
X161544Y30988
X125984Y53848
X161544Y53848
X202692Y30988
X167132Y53848
X167132Y30988
X202692Y53848
X38100Y59436
X2540Y82296
X2540Y59436
X38100Y82296
X79248Y59436
X43688Y82296
X43688Y59436
T2
X29210Y10160
X29210Y12700
X29210Y15240
X29210Y17780
X70358Y41148
X70358Y43688
X70358Y46228
X193802Y10160
X193802Y12700
X193802Y15240
X193802Y17780
X29210Y38608
X29210Y41148
X29210Y43688
X29210Y46228
X111506Y10160
X111506Y12700
X111506Y15240
X111506Y17780
X152654Y10160
X70358Y10160
X70358Y12700
X70358Y15240
X70358Y17780
X152654Y12700
X152654Y15240
X152654Y17780
X193802Y131572
X193802Y129032
X193802Y126492
X193802Y123952
X152654Y131572
X152654Y129032
X152654Y126492
X152654Y123952
X111506Y131572
X111506Y129032
X111506Y126492
X111506Y123952
X70358Y131572
X70358Y38608
X70358Y129032
X70358Y126492
X70358Y123952
X29210Y131572
X29210Y129032
X29210Y126492
X152654Y41148
X152654Y38608
X193802Y103124
X111506Y43688
X111506Y41148
X193802Y100584
X193802Y98044
X193802Y95504
X152654Y103124
X152654Y100584
X152654Y98044
X152654Y95504
X111506Y100584
X111506Y98044
X111506Y95504
X70358Y103124
X70358Y100584
X70358Y98044
X70358Y95504
X29210Y103124
X29210Y100584
X29210Y98044
X29210Y95504
X193802Y74676
X193802Y72136
X193802Y69596
X193802Y67056
X29210Y123952
X152654Y74676
X152654Y72136
X152654Y69596
X152654Y67056
X111506Y74676
X111506Y72136
X111506Y69596
X111506Y67056
X70358Y74676
X70358Y72136
X70358Y69596
X111506Y38608
X70358Y67056
X29210Y74676
X29210Y72136
X29210Y69596
X29210Y67056
X111506Y103124
X193802Y46228
X193802Y43688
X193802Y41148
X193802Y38608
X152654Y46228
X152654Y43688
X111506Y46228
T3
X22878Y121670
X20338Y121670
X17798Y121670
X15258Y121670
X12718Y121670
X12718Y133910
X15258Y133910
X17798Y133910
X20338Y133910
X22878Y133910
X25418Y133910
X27958Y133910
X30498Y133910
X71646Y121670
X69106Y121670
X187470Y36326
X66566Y121670
X64026Y121670
X61486Y121670
X58946Y121670
X56406Y121670
X53866Y121670
X53866Y133910
X56406Y133910
X58946Y133910
X61486Y133910
X64026Y133910
X66566Y133910
X69106Y133910
X71646Y133910
X112794Y121670
X110254Y121670
X107714Y121670
X105174Y121670
X102634Y121670
X100094Y121670
X97554Y121670
X95014Y121670
X95014Y133910
X97554Y133910
X100094Y133910
X102634Y133910
X53866Y7878
X105174Y133910
X107714Y133910
X110254Y133910
X112794Y133910
X153942Y121670
X151402Y121670
X148862Y121670
X146322Y121670
X143782Y121670
X141242Y121670
X138702Y121670
X136162Y121670
X136162Y133910
X138702Y133910
X141242Y133910
X143782Y133910
X146322Y133910
X148862Y133910
X151402Y133910
X153942Y133910
X195090Y121670
X192550Y121670
X190010Y121670
X187470Y121670
X184930Y121670
X182390Y121670
X179850Y121670
X177310Y121670
X177310Y133910
X179850Y133910
X182390Y133910
X184930Y133910
X187470Y133910
X190010Y133910
X192550Y133910
X195090Y133910
X71646Y36326
X30498Y7878
X27958Y7878
X25418Y7878
X22878Y7878
X20338Y7878
X17798Y7878
X15258Y7878
X12718Y7878
X12718Y20118
X15258Y20118
X17798Y20118
X20338Y20118
X22878Y20118
X25418Y20118
X27958Y20118
X30498Y20118
X71646Y7878
X69106Y7878
X66566Y7878
X64026Y7878
X61486Y7878
X58946Y7878
X56406Y7878
X53866Y20118
X56406Y20118
X58946Y20118
X61486Y20118
X64026Y20118
X66566Y20118
X69106Y20118
X71646Y20118
X112794Y7878
X110254Y7878
X107714Y7878
X105174Y7878
X102634Y7878
X100094Y7878
X97554Y7878
X95014Y7878
X95014Y20118
X97554Y20118
X100094Y20118
X102634Y20118
X105174Y20118
X107714Y20118
X110254Y20118
X112794Y20118
X153942Y7878
X151402Y7878
X148862Y7878
X146322Y7878
X143782Y7878
X141242Y7878
X138702Y7878
X136162Y7878
X136162Y20118
X138702Y20118
X141242Y20118
X143782Y20118
X146322Y20118
X148862Y20118
X151402Y20118
X153942Y20118
X195090Y7878
X192550Y7878
X190010Y7878
X187470Y7878
X184930Y7878
X182390Y7878
X179850Y7878
X177310Y7878
X177310Y20118
X179850Y20118
X182390Y20118
X184930Y20118
X187470Y20118
X190010Y20118
X192550Y20118
X195090Y20118
X30498Y36326
X27958Y36326
X25418Y36326
X22878Y36326
X20338Y36326
X17798Y36326
X15258Y36326
X12718Y36326
X12718Y48566
X15258Y48566
X17798Y48566
X20338Y48566
X22878Y48566
X25418Y48566
X27958Y48566
X30498Y48566
X25418Y121670
X69106Y36326
X66566Y36326
X64026Y36326
X61486Y36326
X58946Y36326
X56406Y36326
X53866Y36326
X53866Y48566
X56406Y48566
X58946Y48566
X61486Y48566
X64026Y48566
X66566Y48566
X69106Y48566
X71646Y48566
X112794Y36326
X110254Y36326
X107714Y36326
X105174Y36326
X102634Y36326
X100094Y36326
X97554Y36326
X95014Y36326
X95014Y48566
X97554Y48566
X100094Y48566
X102634Y48566
X105174Y48566
X107714Y48566
X110254Y48566
X112794Y48566
X153942Y36326
X151402Y36326
X148862Y36326
X146322Y36326
X143782Y36326
X141242Y36326
X138702Y36326
X136162Y36326
X136162Y48566
X138702Y48566
X141242Y48566
X143782Y48566
X146322Y48566
X148862Y48566
X151402Y48566
X153942Y48566
X195090Y36326
X192550Y36326
X190010Y36326
X184930Y36326
X182390Y36326
X179850Y36326
X177310Y36326
X177310Y48566
X179850Y48566
X182390Y48566
X184930Y48566
X187470Y48566
X190010Y48566
X192550Y48566
X195090Y48566
X30498Y64774
X27958Y64774
X25418Y64774
X22878Y64774
X20338Y64774
X17798Y64774
X15258Y64774
X12718Y64774
X12718Y77014
X15258Y77014
X17798Y77014
X20338Y77014
X22878Y77014
X25418Y77014
X27958Y77014
X30498Y77014
X71646Y64774
X69106Y64774
X66566Y64774
X64026Y64774
X61486Y64774
X58946Y64774
X56406Y64774
X53866Y64774
X53866Y77014
X56406Y77014
X58946Y77014
X61486Y77014
X64026Y77014
X66566Y77014
X69106Y77014
X71646Y77014
X112794Y64774
X110254Y64774
X107714Y64774
X105174Y64774
X102634Y64774
X100094Y64774
X97554Y64774
X95014Y64774
X95014Y77014
X97554Y77014
X100094Y77014
X102634Y77014
X105174Y77014
X107714Y77014
X110254Y77014
X112794Y77014
X153942Y64774
X151402Y64774
X148862Y64774
X146322Y64774
X143782Y64774
X141242Y64774
X138702Y64774
X136162Y64774
X136162Y77014
X138702Y77014
X141242Y77014
X143782Y77014
X146322Y77014
X148862Y77014
X151402Y77014
X153942Y77014
X195090Y64774
X192550Y64774
X190010Y64774
X187470Y64774
X184930Y64774
X182390Y64774
X179850Y64774
X177310Y64774
X177310Y77014
X179850Y77014
X182390Y77014
X184930Y77014
X187470Y77014
X190010Y77014
X192550Y77014
X195090Y77014
X30498Y93222
X27958Y93222
X25418Y93222
X22878Y93222
X20338Y93222
X17798Y93222
X15258Y93222
X12718Y93222
X12718Y105462
X15258Y105462
X17798Y105462
X20338Y105462
X22878Y105462
X25418Y105462
X27958Y105462
X30498Y105462
X71646Y93222
X69106Y93222
X66566Y93222
X64026Y93222
X61486Y93222
X58946Y93222
X56406Y93222
X53866Y93222
X53866Y105462
X56406Y105462
X58946Y105462
X61486Y105462
X64026Y105462
X66566Y105462
X69106Y105462
X71646Y105462
X112794Y93222
X110254Y93222
X107714Y93222
X105174Y93222
X102634Y93222
X100094Y93222
X97554Y93222
X95014Y93222
X95014Y105462
X97554Y105462
X100094Y105462
X102634Y105462
X105174Y105462
X107714Y105462
X110254Y105462
X112794Y105462
X153942Y93222
X151402Y93222
X148862Y93222
X146322Y93222
X143782Y93222
X141242Y93222
X138702Y93222
X136162Y93222
X136162Y105462
X138702Y105462
X141242Y105462
X143782Y105462
X146322Y105462
X148862Y105462
X151402Y105462
X153942Y105462
X195090Y93222
X192550Y93222
X190010Y93222
X187470Y93222
X184930Y93222
X182390Y93222
X179850Y93222
X177310Y93222
X177310Y105462
X179850Y105462
X182390Y105462
X184930Y105462
X187470Y105462
X190010Y105462
X192550Y105462
X195090Y105462
X30498Y121670
X27958Y121670
T4
X149428Y127954
X93726Y129032
X109220Y132969
X11430Y129032
X134874Y72136
X150368Y76073
X26924Y132969
X11430Y15240
X26924Y19177
X149428Y71058
X25984Y14162
X25400Y14859
X25325Y15800
X148844Y71755
X24430Y15794
X148769Y72696
X148844Y128651
X11430Y72136
X26924Y76073
X147875Y72691
X25984Y71058
X25400Y71755
X52578Y43688
X68072Y47625
X25325Y72696
X67132Y42610
X66548Y43307
X66473Y44248
X25984Y127954
X65579Y44242
X24430Y72691
X176022Y100584
X52578Y15240
X68072Y19177
X191516Y104521
X67132Y14162
X66548Y14859
X66473Y15800
X25400Y128651
X65579Y15794
X190576Y99506
X189992Y100203
X189917Y101144
X25325Y129592
X52578Y100584
X68072Y104521
X189022Y101138
X67132Y99506
X66548Y100203
X66473Y101144
X108280Y127954
X65579Y101138
X24430Y129586
X93726Y43688
X109220Y47625
X176022Y72136
X108280Y42610
X93726Y15240
X109220Y19177
X107696Y43307
X108280Y14162
X107696Y14859
X107621Y15800
X107621Y44248
X106726Y15794
X52578Y72136
X106726Y44242
X68072Y76073
X191516Y76073
X67132Y71058
X66548Y71755
X66473Y72696
X134874Y100584
X65579Y72691
X190576Y71058
X189992Y71755
X189917Y72696
X150368Y132969
X109220Y104521
X93726Y100584
X190576Y14162
X107621Y72696
X191516Y19177
X176022Y15240
X106726Y72691
X189992Y128651
X190576Y127954
X191516Y132969
X176022Y129032
X24430Y44242
X148769Y15800
X148844Y14859
X149428Y14162
X68072Y132969
X147875Y129586
X107621Y129592
X66473Y129592
X66548Y128651
X147875Y44242
X25325Y44248
X25400Y43307
X25984Y42610
X191516Y47625
X176022Y43688
X26924Y104521
X11430Y100584
X147875Y15794
X189022Y129586
X107696Y71755
X108280Y71058
X150368Y19177
X134874Y15240
X148769Y101144
X148844Y100203
X106726Y129586
X189917Y129592
X189022Y15794
X134874Y129032
X189917Y15800
X67132Y127954
X148769Y44248
X148844Y43307
X149428Y42610
X189992Y14859
X26924Y47625
X106726Y101138
X11430Y43688
X189917Y44248
X189992Y43307
X190576Y42610
X149428Y99506
X52578Y129032
X189022Y72691
X150368Y104521
X108280Y99506
X24430Y101138
X25325Y101144
X25400Y100203
X189022Y44242
X25984Y99506
X109220Y76073
X93726Y72136
X148769Y129592
X107696Y128651
X150368Y47625
X134874Y43688
X147875Y101138
X65579Y129586
X107696Y100203
X107621Y101144
T5
X1270Y38608
X31877Y35306
X37592Y38481
X17145Y38989
X16510Y43561
X12065Y38989
X37338Y42545
X22225Y42545
X22898Y40850
X20955Y43180
X25418Y41384
X19663Y40491
X13970Y39624
X17866Y40046
X43942Y47371
X45466Y42672
X49413Y35344
X51308Y48768
X68580Y41275
X42418Y38608
X73025Y35306
X78740Y38481
X58293Y38989
X57658Y43561
X53213Y38989
X78486Y42545
X63373Y42545
X64046Y40850
X62103Y43180
X66566Y41384
X60811Y40491
X167386Y132715
X55118Y39624
X59014Y40046
X108331Y40132
X85090Y47371
X86614Y42672
X90561Y35344
X92456Y48768
X109728Y41275
X83566Y38608
X114173Y35306
X119888Y38481
X99441Y38989
X98806Y43561
X94361Y38989
X119634Y42545
X104521Y42545
X105194Y40850
X103251Y43180
X107714Y41384
X101959Y40491
X96266Y39624
X100162Y40046
X149479Y40132
X126238Y47371
X127762Y42672
X131709Y35344
X133604Y48768
X150876Y41275
X124714Y38608
X155321Y35306
X161036Y38481
X140589Y38989
X139954Y43561
X135509Y38989
X160782Y42545
X145669Y42545
X146342Y40850
X144399Y43180
X148862Y41384
X143107Y40491
X137414Y39624
X141310Y40046
X190627Y40132
X167386Y47371
X168910Y42672
X172857Y35344
X174752Y48768
X192024Y41275
X165862Y38608
X196469Y35306
X202184Y38481
X181737Y38989
X181102Y43561
X176657Y38989
X201930Y42545
X186817Y42545
X187490Y40850
X185547Y43180
X190010Y41384
X184255Y40491
X178562Y39624
X182458Y40046
X26035Y68580
X2794Y75819
X4318Y71120
X8265Y63792
X10160Y77216
X27432Y69723
X1270Y67056
X31877Y63754
X37592Y66929
X17145Y67437
X16510Y72009
X12065Y67437
X37338Y70993
X22225Y70993
X22898Y69298
X20955Y71628
X25418Y69832
X19663Y68939
X13970Y68072
X17866Y68494
X67183Y68580
X43942Y75819
X45466Y71120
X49413Y63792
X51308Y77216
X68580Y69723
X42418Y67056
X73025Y63754
X78740Y66929
X58293Y67437
X57658Y72009
X53213Y67437
X78486Y70993
X63373Y70993
X64046Y69298
X62103Y71628
X66566Y69832
X60811Y68939
X55118Y68072
X59014Y68494
X108331Y68580
X85090Y75819
X86614Y71120
X90561Y63792
X92456Y77216
X109728Y69723
X83566Y67056
X114173Y63754
X119888Y66929
X99441Y67437
X98806Y72009
X94361Y67437
X119634Y70993
X104521Y70993
X105194Y69298
X103251Y71628
X107714Y69832
X101959Y68939
X96266Y68072
X100162Y68494
X149479Y68580
X126238Y75819
X127762Y71120
X131709Y63792
X133604Y77216
X150876Y69723
X124714Y67056
X155321Y63754
X161036Y66929
X140589Y67437
X139954Y72009
X135509Y67437
X160782Y70993
X145669Y70993
X146342Y69298
X144399Y71628
X148862Y69832
X143107Y68939
X137414Y68072
X141310Y68494
X190627Y68580
X167386Y75819
X168910Y71120
X172857Y63792
X174752Y77216
X192024Y69723
X165862Y67056
X196469Y63754
X202184Y66929
X181737Y67437
X181102Y72009
X176657Y67437
X201930Y70993
X186817Y70993
X187490Y69298
X185547Y71628
X190010Y69832
X184255Y68939
X178562Y68072
X182458Y68494
X26035Y97028
X2794Y104267
X4318Y99568
X8265Y92240
X10160Y105664
X27432Y98171
X1270Y95504
X31877Y92202
X37592Y95377
X17145Y95885
X16510Y100457
X12065Y95885
X37338Y99441
X22225Y99441
X22898Y97746
X20955Y100076
X25418Y98280
X19663Y97387
X13970Y96520
X17866Y96942
X67183Y97028
X43942Y104267
X45466Y99568
X49413Y92240
X51308Y105664
X68580Y98171
X42418Y95504
X73025Y92202
X78740Y95377
X58293Y95885
X57658Y100457
X53213Y95885
X78486Y99441
X63373Y99441
X64046Y97746
X62103Y100076
X66566Y98280
X60811Y97387
X55118Y96520
X59014Y96942
X108331Y97028
X85090Y104267
X86614Y99568
X90561Y92240
X92456Y105664
X109728Y98171
X83566Y95504
X114173Y92202
X119888Y95377
X99441Y95885
X98806Y100457
X94361Y95885
X119634Y99441
X104521Y99441
X105194Y97746
X103251Y100076
X107714Y98280
X101959Y97387
X96266Y96520
X100162Y96942
X149479Y97028
X127762Y99568
X131709Y92240
X133604Y105664
X150876Y98171
X124714Y95504
X155321Y92202
X161036Y95377
X140589Y95885
X139954Y100457
X135509Y95885
X160782Y99441
X145669Y99441
X146342Y97746
X144399Y100076
X148862Y98280
X143107Y97387
X137414Y96520
X141310Y96942
X190627Y97028
X167386Y104267
X168910Y99568
X172857Y92240
X174752Y105664
X192024Y98171
X165862Y95504
X196469Y92202
X202184Y95377
X181737Y95885
X181102Y100457
X176657Y95885
X201930Y99441
X186817Y99441
X187490Y97746
X185547Y100076
X190010Y98280
X184255Y97387
X178562Y96520
X182458Y96942
X26035Y125476
X2794Y132715
X4318Y128016
X8265Y120688
X10160Y134112
X27432Y126619
X1270Y123952
X31877Y120650
X37592Y123825
X17145Y124333
X16510Y128905
X12065Y124333
X37338Y127889
X22225Y127889
X22898Y126194
X20955Y128524
X25418Y126728
X19663Y125835
X13970Y124968
X17866Y125390
X67183Y125476
X43942Y132715
X45466Y128016
X49413Y120688
X51308Y134112
X68580Y126619
X42418Y123952
X73025Y120650
X78740Y123825
X58293Y124333
X57658Y128905
X53213Y124333
X78486Y127889
X63373Y127889
X64046Y126194
X62103Y128524
X66566Y126728
X60811Y125835
X55118Y124968
X59014Y125390
X108331Y125476
X85090Y132715
X86614Y128016
X90561Y120688
X92456Y134112
X109728Y126619
X83566Y123952
X114173Y120650
X119888Y123825
X99441Y124333
X126238Y104267
X98806Y128905
X94361Y124333
X119634Y127889
X104521Y127889
X105194Y126194
X103251Y128524
X107714Y126728
X101959Y125835
X96266Y124968
X100162Y125390
X149479Y125476
X126238Y132715
X127762Y128016
X131709Y120688
X133604Y134112
X150876Y126619
X124714Y123952
X155321Y120650
X161036Y123825
X140589Y124333
X139954Y128905
X135509Y124333
X160782Y127889
X145669Y127889
X146342Y126194
X144399Y128524
X148862Y126728
X143107Y125835
X137414Y124968
X141310Y125390
X190627Y125476
X67183Y40132
X168910Y128016
X172857Y120688
X174752Y134112
X192024Y126619
X165862Y123952
X196469Y120650
X26035Y11684
X2794Y18923
X202184Y123825
X4318Y14224
X8265Y6896
X10160Y20320
X181737Y124333
X27432Y12827
X181102Y128905
X176657Y124333
X201930Y127889
X186817Y127889
X187490Y126194
X185547Y128524
X190010Y126728
X184255Y125835
X178562Y124968
X182458Y125390
X1270Y10160
X31877Y6858
X37592Y10033
X17145Y10541
X16510Y15113
X12065Y10541
X37338Y14097
X22225Y14097
X22898Y12402
X20955Y14732
X25418Y12936
X19663Y12043
X13970Y11176
X17866Y11598
X67183Y11684
X43942Y18923
X45466Y14224
X49413Y6896
X51308Y20320
X68580Y12827
X42418Y10160
X73025Y6858
X78740Y10033
X58293Y10541
X57658Y15113
X53213Y10541
X78486Y14097
X63373Y14097
X64046Y12402
X62103Y14732
X66566Y12936
X60811Y12043
X55118Y11176
X59014Y11598
X108331Y11684
X85090Y18923
X86614Y14224
X90561Y6896
X92456Y20320
X109728Y12827
X83566Y10160
X114173Y6858
X119888Y10033
X99441Y10541
X98806Y15113
X94361Y10541
X119634Y14097
X104521Y14097
X105194Y12402
X103251Y14732
X107714Y12936
X101959Y12043
X96266Y11176
X100162Y11598
X149479Y11684
X126238Y18923
X127762Y14224
X131709Y6896
X133604Y20320
X150876Y12827
X124714Y10160
X155321Y6858
X161036Y10033
X140589Y10541
X139954Y15113
X135509Y10541
X160782Y14097
X145669Y14097
X146342Y12402
X144399Y14732
X148862Y12936
X143107Y12043
X137414Y11176
X141310Y11598
X190627Y11684
X167386Y18923
X168910Y14224
X172857Y6896
X174752Y20320
X192024Y12827
X165862Y10160
X196469Y6858
X202184Y10033
X181737Y10541
X181102Y15113
X176657Y10541
X201930Y14097
X186817Y14097
X187490Y12402
X185547Y14732
X190010Y12936
X184255Y12043
X178562Y11176
X182458Y11598
X26035Y40132
X2794Y47371
X4318Y42672
X8265Y35344
X10160Y48768
X27432Y41275
M30