G04 EAGLE Gerber RS-274X export*
G75*
%MOMM*%
%FSLAX34Y34*%
%LPD*%
%INSoldermask Bottom*%
%IPPOS*%
%AMOC8*
5,1,8,0,0,1.08239X$1,22.5*%
G01*
%ADD10C,2.082800*%
%ADD11C,1.203200*%
%ADD12C,1.879600*%
%ADD13C,1.727200*%
%ADD14C,3.505200*%


D10*
X292100Y101600D03*
X292100Y127000D03*
X292100Y152400D03*
X292100Y177800D03*
D11*
X50800Y12700D03*
X355600Y266700D03*
D12*
X304980Y78780D03*
X279580Y78780D03*
X254180Y78780D03*
X228780Y78780D03*
X203380Y78780D03*
X177980Y78780D03*
X152580Y78780D03*
X127180Y78780D03*
X127180Y201180D03*
X152580Y201180D03*
X177980Y201180D03*
X203380Y201180D03*
X228780Y201180D03*
X254180Y201180D03*
D13*
X279580Y201180D03*
X304980Y201180D03*
D14*
X381000Y25400D03*
X25400Y254000D03*
X25400Y25400D03*
X381000Y254000D03*
D10*
X703580Y101600D03*
X703580Y127000D03*
X703580Y152400D03*
X703580Y177800D03*
D11*
X462280Y12700D03*
X767080Y266700D03*
D12*
X716460Y78780D03*
X691060Y78780D03*
X665660Y78780D03*
X640260Y78780D03*
X614860Y78780D03*
X589460Y78780D03*
X564060Y78780D03*
X538660Y78780D03*
X538660Y201180D03*
X564060Y201180D03*
X589460Y201180D03*
X614860Y201180D03*
X640260Y201180D03*
X665660Y201180D03*
D13*
X691060Y201180D03*
X716460Y201180D03*
D14*
X792480Y25400D03*
X436880Y254000D03*
X436880Y25400D03*
X792480Y254000D03*
D10*
X1115060Y101600D03*
X1115060Y127000D03*
X1115060Y152400D03*
X1115060Y177800D03*
D11*
X873760Y12700D03*
X1178560Y266700D03*
D12*
X1127940Y78780D03*
X1102540Y78780D03*
X1077140Y78780D03*
X1051740Y78780D03*
X1026340Y78780D03*
X1000940Y78780D03*
X975540Y78780D03*
X950140Y78780D03*
X950140Y201180D03*
X975540Y201180D03*
X1000940Y201180D03*
X1026340Y201180D03*
X1051740Y201180D03*
X1077140Y201180D03*
D13*
X1102540Y201180D03*
X1127940Y201180D03*
D14*
X1203960Y25400D03*
X848360Y254000D03*
X848360Y25400D03*
X1203960Y254000D03*
D10*
X1526540Y101600D03*
X1526540Y127000D03*
X1526540Y152400D03*
X1526540Y177800D03*
D11*
X1285240Y12700D03*
X1590040Y266700D03*
D12*
X1539420Y78780D03*
X1514020Y78780D03*
X1488620Y78780D03*
X1463220Y78780D03*
X1437820Y78780D03*
X1412420Y78780D03*
X1387020Y78780D03*
X1361620Y78780D03*
X1361620Y201180D03*
X1387020Y201180D03*
X1412420Y201180D03*
X1437820Y201180D03*
X1463220Y201180D03*
X1488620Y201180D03*
D13*
X1514020Y201180D03*
X1539420Y201180D03*
D14*
X1615440Y25400D03*
X1259840Y254000D03*
X1259840Y25400D03*
X1615440Y254000D03*
D10*
X1938020Y101600D03*
X1938020Y127000D03*
X1938020Y152400D03*
X1938020Y177800D03*
D11*
X1696720Y12700D03*
X2001520Y266700D03*
D12*
X1950900Y78780D03*
X1925500Y78780D03*
X1900100Y78780D03*
X1874700Y78780D03*
X1849300Y78780D03*
X1823900Y78780D03*
X1798500Y78780D03*
X1773100Y78780D03*
X1773100Y201180D03*
X1798500Y201180D03*
X1823900Y201180D03*
X1849300Y201180D03*
X1874700Y201180D03*
X1900100Y201180D03*
D13*
X1925500Y201180D03*
X1950900Y201180D03*
D14*
X2026920Y25400D03*
X1671320Y254000D03*
X1671320Y25400D03*
X2026920Y254000D03*
D10*
X292100Y386080D03*
X292100Y411480D03*
X292100Y436880D03*
X292100Y462280D03*
D11*
X50800Y297180D03*
X355600Y551180D03*
D12*
X304980Y363260D03*
X279580Y363260D03*
X254180Y363260D03*
X228780Y363260D03*
X203380Y363260D03*
X177980Y363260D03*
X152580Y363260D03*
X127180Y363260D03*
X127180Y485660D03*
X152580Y485660D03*
X177980Y485660D03*
X203380Y485660D03*
X228780Y485660D03*
X254180Y485660D03*
D13*
X279580Y485660D03*
X304980Y485660D03*
D14*
X381000Y309880D03*
X25400Y538480D03*
X25400Y309880D03*
X381000Y538480D03*
D10*
X703580Y386080D03*
X703580Y411480D03*
X703580Y436880D03*
X703580Y462280D03*
D11*
X462280Y297180D03*
X767080Y551180D03*
D12*
X716460Y363260D03*
X691060Y363260D03*
X665660Y363260D03*
X640260Y363260D03*
X614860Y363260D03*
X589460Y363260D03*
X564060Y363260D03*
X538660Y363260D03*
X538660Y485660D03*
X564060Y485660D03*
X589460Y485660D03*
X614860Y485660D03*
X640260Y485660D03*
X665660Y485660D03*
D13*
X691060Y485660D03*
X716460Y485660D03*
D14*
X792480Y309880D03*
X436880Y538480D03*
X436880Y309880D03*
X792480Y538480D03*
D10*
X1115060Y386080D03*
X1115060Y411480D03*
X1115060Y436880D03*
X1115060Y462280D03*
D11*
X873760Y297180D03*
X1178560Y551180D03*
D12*
X1127940Y363260D03*
X1102540Y363260D03*
X1077140Y363260D03*
X1051740Y363260D03*
X1026340Y363260D03*
X1000940Y363260D03*
X975540Y363260D03*
X950140Y363260D03*
X950140Y485660D03*
X975540Y485660D03*
X1000940Y485660D03*
X1026340Y485660D03*
X1051740Y485660D03*
X1077140Y485660D03*
D13*
X1102540Y485660D03*
X1127940Y485660D03*
D14*
X1203960Y309880D03*
X848360Y538480D03*
X848360Y309880D03*
X1203960Y538480D03*
D10*
X1526540Y386080D03*
X1526540Y411480D03*
X1526540Y436880D03*
X1526540Y462280D03*
D11*
X1285240Y297180D03*
X1590040Y551180D03*
D12*
X1539420Y363260D03*
X1514020Y363260D03*
X1488620Y363260D03*
X1463220Y363260D03*
X1437820Y363260D03*
X1412420Y363260D03*
X1387020Y363260D03*
X1361620Y363260D03*
X1361620Y485660D03*
X1387020Y485660D03*
X1412420Y485660D03*
X1437820Y485660D03*
X1463220Y485660D03*
X1488620Y485660D03*
D13*
X1514020Y485660D03*
X1539420Y485660D03*
D14*
X1615440Y309880D03*
X1259840Y538480D03*
X1259840Y309880D03*
X1615440Y538480D03*
D10*
X1938020Y386080D03*
X1938020Y411480D03*
X1938020Y436880D03*
X1938020Y462280D03*
D11*
X1696720Y297180D03*
X2001520Y551180D03*
D12*
X1950900Y363260D03*
X1925500Y363260D03*
X1900100Y363260D03*
X1874700Y363260D03*
X1849300Y363260D03*
X1823900Y363260D03*
X1798500Y363260D03*
X1773100Y363260D03*
X1773100Y485660D03*
X1798500Y485660D03*
X1823900Y485660D03*
X1849300Y485660D03*
X1874700Y485660D03*
X1900100Y485660D03*
D13*
X1925500Y485660D03*
X1950900Y485660D03*
D14*
X2026920Y309880D03*
X1671320Y538480D03*
X1671320Y309880D03*
X2026920Y538480D03*
D10*
X292100Y670560D03*
X292100Y695960D03*
X292100Y721360D03*
X292100Y746760D03*
D11*
X50800Y581660D03*
X355600Y835660D03*
D12*
X304980Y647740D03*
X279580Y647740D03*
X254180Y647740D03*
X228780Y647740D03*
X203380Y647740D03*
X177980Y647740D03*
X152580Y647740D03*
X127180Y647740D03*
X127180Y770140D03*
X152580Y770140D03*
X177980Y770140D03*
X203380Y770140D03*
X228780Y770140D03*
X254180Y770140D03*
D13*
X279580Y770140D03*
X304980Y770140D03*
D14*
X381000Y594360D03*
X25400Y822960D03*
X25400Y594360D03*
X381000Y822960D03*
D10*
X703580Y670560D03*
X703580Y695960D03*
X703580Y721360D03*
X703580Y746760D03*
D11*
X462280Y581660D03*
X767080Y835660D03*
D12*
X716460Y647740D03*
X691060Y647740D03*
X665660Y647740D03*
X640260Y647740D03*
X614860Y647740D03*
X589460Y647740D03*
X564060Y647740D03*
X538660Y647740D03*
X538660Y770140D03*
X564060Y770140D03*
X589460Y770140D03*
X614860Y770140D03*
X640260Y770140D03*
X665660Y770140D03*
D13*
X691060Y770140D03*
X716460Y770140D03*
D14*
X792480Y594360D03*
X436880Y822960D03*
X436880Y594360D03*
X792480Y822960D03*
D10*
X1115060Y670560D03*
X1115060Y695960D03*
X1115060Y721360D03*
X1115060Y746760D03*
D11*
X873760Y581660D03*
X1178560Y835660D03*
D12*
X1127940Y647740D03*
X1102540Y647740D03*
X1077140Y647740D03*
X1051740Y647740D03*
X1026340Y647740D03*
X1000940Y647740D03*
X975540Y647740D03*
X950140Y647740D03*
X950140Y770140D03*
X975540Y770140D03*
X1000940Y770140D03*
X1026340Y770140D03*
X1051740Y770140D03*
X1077140Y770140D03*
D13*
X1102540Y770140D03*
X1127940Y770140D03*
D14*
X1203960Y594360D03*
X848360Y822960D03*
X848360Y594360D03*
X1203960Y822960D03*
D10*
X1526540Y670560D03*
X1526540Y695960D03*
X1526540Y721360D03*
X1526540Y746760D03*
D11*
X1285240Y581660D03*
X1590040Y835660D03*
D12*
X1539420Y647740D03*
X1514020Y647740D03*
X1488620Y647740D03*
X1463220Y647740D03*
X1437820Y647740D03*
X1412420Y647740D03*
X1387020Y647740D03*
X1361620Y647740D03*
X1361620Y770140D03*
X1387020Y770140D03*
X1412420Y770140D03*
X1437820Y770140D03*
X1463220Y770140D03*
X1488620Y770140D03*
D13*
X1514020Y770140D03*
X1539420Y770140D03*
D14*
X1615440Y594360D03*
X1259840Y822960D03*
X1259840Y594360D03*
X1615440Y822960D03*
D10*
X1938020Y670560D03*
X1938020Y695960D03*
X1938020Y721360D03*
X1938020Y746760D03*
D11*
X1696720Y581660D03*
X2001520Y835660D03*
D12*
X1950900Y647740D03*
X1925500Y647740D03*
X1900100Y647740D03*
X1874700Y647740D03*
X1849300Y647740D03*
X1823900Y647740D03*
X1798500Y647740D03*
X1773100Y647740D03*
X1773100Y770140D03*
X1798500Y770140D03*
X1823900Y770140D03*
X1849300Y770140D03*
X1874700Y770140D03*
X1900100Y770140D03*
D13*
X1925500Y770140D03*
X1950900Y770140D03*
D14*
X2026920Y594360D03*
X1671320Y822960D03*
X1671320Y594360D03*
X2026920Y822960D03*
D10*
X292100Y955040D03*
X292100Y980440D03*
X292100Y1005840D03*
X292100Y1031240D03*
D11*
X50800Y866140D03*
X355600Y1120140D03*
D12*
X304980Y932220D03*
X279580Y932220D03*
X254180Y932220D03*
X228780Y932220D03*
X203380Y932220D03*
X177980Y932220D03*
X152580Y932220D03*
X127180Y932220D03*
X127180Y1054620D03*
X152580Y1054620D03*
X177980Y1054620D03*
X203380Y1054620D03*
X228780Y1054620D03*
X254180Y1054620D03*
D13*
X279580Y1054620D03*
X304980Y1054620D03*
D14*
X381000Y878840D03*
X25400Y1107440D03*
X25400Y878840D03*
X381000Y1107440D03*
D10*
X703580Y955040D03*
X703580Y980440D03*
X703580Y1005840D03*
X703580Y1031240D03*
D11*
X462280Y866140D03*
X767080Y1120140D03*
D12*
X716460Y932220D03*
X691060Y932220D03*
X665660Y932220D03*
X640260Y932220D03*
X614860Y932220D03*
X589460Y932220D03*
X564060Y932220D03*
X538660Y932220D03*
X538660Y1054620D03*
X564060Y1054620D03*
X589460Y1054620D03*
X614860Y1054620D03*
X640260Y1054620D03*
X665660Y1054620D03*
D13*
X691060Y1054620D03*
X716460Y1054620D03*
D14*
X792480Y878840D03*
X436880Y1107440D03*
X436880Y878840D03*
X792480Y1107440D03*
D10*
X1115060Y955040D03*
X1115060Y980440D03*
X1115060Y1005840D03*
X1115060Y1031240D03*
D11*
X873760Y866140D03*
X1178560Y1120140D03*
D12*
X1127940Y932220D03*
X1102540Y932220D03*
X1077140Y932220D03*
X1051740Y932220D03*
X1026340Y932220D03*
X1000940Y932220D03*
X975540Y932220D03*
X950140Y932220D03*
X950140Y1054620D03*
X975540Y1054620D03*
X1000940Y1054620D03*
X1026340Y1054620D03*
X1051740Y1054620D03*
X1077140Y1054620D03*
D13*
X1102540Y1054620D03*
X1127940Y1054620D03*
D14*
X1203960Y878840D03*
X848360Y1107440D03*
X848360Y878840D03*
X1203960Y1107440D03*
D10*
X1526540Y955040D03*
X1526540Y980440D03*
X1526540Y1005840D03*
X1526540Y1031240D03*
D11*
X1285240Y866140D03*
X1590040Y1120140D03*
D12*
X1539420Y932220D03*
X1514020Y932220D03*
X1488620Y932220D03*
X1463220Y932220D03*
X1437820Y932220D03*
X1412420Y932220D03*
X1387020Y932220D03*
X1361620Y932220D03*
X1361620Y1054620D03*
X1387020Y1054620D03*
X1412420Y1054620D03*
X1437820Y1054620D03*
X1463220Y1054620D03*
X1488620Y1054620D03*
D13*
X1514020Y1054620D03*
X1539420Y1054620D03*
D14*
X1615440Y878840D03*
X1259840Y1107440D03*
X1259840Y878840D03*
X1615440Y1107440D03*
D10*
X1938020Y955040D03*
X1938020Y980440D03*
X1938020Y1005840D03*
X1938020Y1031240D03*
D11*
X1696720Y866140D03*
X2001520Y1120140D03*
D12*
X1950900Y932220D03*
X1925500Y932220D03*
X1900100Y932220D03*
X1874700Y932220D03*
X1849300Y932220D03*
X1823900Y932220D03*
X1798500Y932220D03*
X1773100Y932220D03*
X1773100Y1054620D03*
X1798500Y1054620D03*
X1823900Y1054620D03*
X1849300Y1054620D03*
X1874700Y1054620D03*
X1900100Y1054620D03*
D13*
X1925500Y1054620D03*
X1950900Y1054620D03*
D14*
X2026920Y878840D03*
X1671320Y1107440D03*
X1671320Y878840D03*
X2026920Y1107440D03*
D10*
X292100Y1239520D03*
X292100Y1264920D03*
X292100Y1290320D03*
X292100Y1315720D03*
D11*
X50800Y1150620D03*
X355600Y1404620D03*
D12*
X304980Y1216700D03*
X279580Y1216700D03*
X254180Y1216700D03*
X228780Y1216700D03*
X203380Y1216700D03*
X177980Y1216700D03*
X152580Y1216700D03*
X127180Y1216700D03*
X127180Y1339100D03*
X152580Y1339100D03*
X177980Y1339100D03*
X203380Y1339100D03*
X228780Y1339100D03*
X254180Y1339100D03*
D13*
X279580Y1339100D03*
X304980Y1339100D03*
D14*
X381000Y1163320D03*
X25400Y1391920D03*
X25400Y1163320D03*
X381000Y1391920D03*
D10*
X703580Y1239520D03*
X703580Y1264920D03*
X703580Y1290320D03*
X703580Y1315720D03*
D11*
X462280Y1150620D03*
X767080Y1404620D03*
D12*
X716460Y1216700D03*
X691060Y1216700D03*
X665660Y1216700D03*
X640260Y1216700D03*
X614860Y1216700D03*
X589460Y1216700D03*
X564060Y1216700D03*
X538660Y1216700D03*
X538660Y1339100D03*
X564060Y1339100D03*
X589460Y1339100D03*
X614860Y1339100D03*
X640260Y1339100D03*
X665660Y1339100D03*
D13*
X691060Y1339100D03*
X716460Y1339100D03*
D14*
X792480Y1163320D03*
X436880Y1391920D03*
X436880Y1163320D03*
X792480Y1391920D03*
D10*
X1115060Y1239520D03*
X1115060Y1264920D03*
X1115060Y1290320D03*
X1115060Y1315720D03*
D11*
X873760Y1150620D03*
X1178560Y1404620D03*
D12*
X1127940Y1216700D03*
X1102540Y1216700D03*
X1077140Y1216700D03*
X1051740Y1216700D03*
X1026340Y1216700D03*
X1000940Y1216700D03*
X975540Y1216700D03*
X950140Y1216700D03*
X950140Y1339100D03*
X975540Y1339100D03*
X1000940Y1339100D03*
X1026340Y1339100D03*
X1051740Y1339100D03*
X1077140Y1339100D03*
D13*
X1102540Y1339100D03*
X1127940Y1339100D03*
D14*
X1203960Y1163320D03*
X848360Y1391920D03*
X848360Y1163320D03*
X1203960Y1391920D03*
D10*
X1526540Y1239520D03*
X1526540Y1264920D03*
X1526540Y1290320D03*
X1526540Y1315720D03*
D11*
X1285240Y1150620D03*
X1590040Y1404620D03*
D12*
X1539420Y1216700D03*
X1514020Y1216700D03*
X1488620Y1216700D03*
X1463220Y1216700D03*
X1437820Y1216700D03*
X1412420Y1216700D03*
X1387020Y1216700D03*
X1361620Y1216700D03*
X1361620Y1339100D03*
X1387020Y1339100D03*
X1412420Y1339100D03*
X1437820Y1339100D03*
X1463220Y1339100D03*
X1488620Y1339100D03*
D13*
X1514020Y1339100D03*
X1539420Y1339100D03*
D14*
X1615440Y1163320D03*
X1259840Y1391920D03*
X1259840Y1163320D03*
X1615440Y1391920D03*
D10*
X1938020Y1239520D03*
X1938020Y1264920D03*
X1938020Y1290320D03*
X1938020Y1315720D03*
D11*
X1696720Y1150620D03*
X2001520Y1404620D03*
D12*
X1950900Y1216700D03*
X1925500Y1216700D03*
X1900100Y1216700D03*
X1874700Y1216700D03*
X1849300Y1216700D03*
X1823900Y1216700D03*
X1798500Y1216700D03*
X1773100Y1216700D03*
X1773100Y1339100D03*
X1798500Y1339100D03*
X1823900Y1339100D03*
X1849300Y1339100D03*
X1874700Y1339100D03*
X1900100Y1339100D03*
D13*
X1925500Y1339100D03*
X1950900Y1339100D03*
D14*
X2026920Y1163320D03*
X1671320Y1391920D03*
X1671320Y1163320D03*
X2026920Y1391920D03*
D11*
X68580Y1438275D03*
X1983105Y1438275D03*
M02*
