M48
;GenerationSoftware,Autodesk,EAGLE,9.4.2*%
;CreationDate,2020-03-10T18:03:24Z*%
FMAT,2
ICI,OFF
METRIC,TZ,000.000
T5C0.305
T4C0.381
T3C0.750
T2C1.016
T1C3.302
%
G90
M71
T1
X133604Y30988
X125476Y59436
X89916Y82296
X89916Y59436
X125476Y82296
X169164Y59436
X133604Y82296
X133604Y59436
X169164Y82296
X212852Y59436
X177292Y82296
X177292Y59436
X212852Y82296
X38100Y87884
X2540Y110744
X2540Y87884
X38100Y110744
X81788Y87884
X46228Y110744
X46228Y87884
X81788Y110744
X125476Y87884
X89916Y110744
X89916Y87884
X125476Y110744
X169164Y87884
X133604Y110744
X133604Y87884
X169164Y110744
X212852Y87884
X177292Y110744
X177292Y87884
X212852Y110744
X38100Y116332
X2540Y139192
X2540Y116332
X38100Y139192
X81788Y116332
X46228Y139192
X46228Y116332
X81788Y139192
X125476Y116332
X89916Y139192
X89916Y116332
X125476Y139192
X169164Y116332
X133604Y139192
X133604Y116332
X169164Y139192
X212852Y116332
X177292Y139192
X177292Y116332
X212852Y139192
X81788Y82296
X2540Y30988
X38100Y2540
X2540Y25400
X2540Y2540
X38100Y25400
X81788Y2540
X46228Y25400
X46228Y2540
X81788Y25400
X125476Y2540
X89916Y25400
X89916Y2540
X125476Y25400
X169164Y2540
X133604Y25400
X133604Y2540
X169164Y25400
X212852Y2540
X177292Y25400
X177292Y2540
X212852Y25400
X38100Y30988
X2540Y53848
X38100Y53848
X81788Y30988
X46228Y53848
X46228Y30988
X81788Y53848
X125476Y30988
X89916Y53848
X89916Y30988
X125476Y53848
X169164Y30988
X133604Y53848
X169164Y53848
X212852Y30988
X177292Y53848
X177292Y30988
X212852Y53848
X38100Y59436
X2540Y82296
X2540Y59436
X38100Y82296
X81788Y59436
X46228Y82296
X46228Y59436
T2
X29210Y10160
X29210Y12700
X29210Y15240
X29210Y17780
X72898Y41148
X72898Y43688
X72898Y46228
X203962Y10160
X203962Y12700
X203962Y15240
X203962Y17780
X29210Y38608
X29210Y41148
X29210Y43688
X29210Y46228
X116586Y10160
X116586Y12700
X116586Y15240
X116586Y17780
X160274Y10160
X72898Y10160
X72898Y12700
X72898Y15240
X72898Y17780
X160274Y12700
X160274Y15240
X160274Y17780
X203962Y131572
X203962Y129032
X203962Y126492
X203962Y123952
X160274Y131572
X160274Y129032
X160274Y126492
X160274Y123952
X116586Y131572
X116586Y129032
X116586Y126492
X116586Y123952
X72898Y131572
X72898Y38608
X72898Y129032
X72898Y126492
X72898Y123952
X29210Y131572
X29210Y129032
X29210Y126492
X160274Y41148
X160274Y38608
X203962Y103124
X116586Y43688
X116586Y41148
X203962Y100584
X203962Y98044
X203962Y95504
X160274Y103124
X160274Y100584
X160274Y98044
X160274Y95504
X116586Y100584
X116586Y98044
X116586Y95504
X72898Y103124
X72898Y100584
X72898Y98044
X72898Y95504
X29210Y103124
X29210Y100584
X29210Y98044
X29210Y95504
X203962Y74676
X203962Y72136
X203962Y69596
X203962Y67056
X29210Y123952
X160274Y74676
X160274Y72136
X160274Y69596
X160274Y67056
X116586Y74676
X116586Y72136
X116586Y69596
X116586Y67056
X72898Y74676
X72898Y72136
X72898Y69596
X116586Y38608
X72898Y67056
X29210Y74676
X29210Y72136
X29210Y69596
X29210Y67056
X116586Y103124
X203962Y46228
X203962Y43688
X203962Y41148
X203962Y38608
X160274Y46228
X160274Y43688
X116586Y46228
T3
X22878Y121670
X20338Y121670
X17798Y121670
X15258Y121670
X12718Y121670
X12718Y133910
X15258Y133910
X17798Y133910
X20338Y133910
X22878Y133910
X25418Y133910
X27958Y133910
X30498Y133910
X74186Y121670
X71646Y121670
X197630Y36326
X69106Y121670
X66566Y121670
X64026Y121670
X61486Y121670
X58946Y121670
X56406Y121670
X56406Y133910
X58946Y133910
X61486Y133910
X64026Y133910
X66566Y133910
X69106Y133910
X71646Y133910
X74186Y133910
X117874Y121670
X115334Y121670
X112794Y121670
X110254Y121670
X107714Y121670
X105174Y121670
X102634Y121670
X100094Y121670
X100094Y133910
X102634Y133910
X105174Y133910
X107714Y133910
X56406Y7878
X110254Y133910
X112794Y133910
X115334Y133910
X117874Y133910
X161562Y121670
X159022Y121670
X156482Y121670
X153942Y121670
X151402Y121670
X148862Y121670
X146322Y121670
X143782Y121670
X143782Y133910
X146322Y133910
X148862Y133910
X151402Y133910
X153942Y133910
X156482Y133910
X159022Y133910
X161562Y133910
X205250Y121670
X202710Y121670
X200170Y121670
X197630Y121670
X195090Y121670
X192550Y121670
X190010Y121670
X187470Y121670
X187470Y133910
X190010Y133910
X192550Y133910
X195090Y133910
X197630Y133910
X200170Y133910
X202710Y133910
X205250Y133910
X74186Y36326
X30498Y7878
X27958Y7878
X25418Y7878
X22878Y7878
X20338Y7878
X17798Y7878
X15258Y7878
X12718Y7878
X12718Y20118
X15258Y20118
X17798Y20118
X20338Y20118
X22878Y20118
X25418Y20118
X27958Y20118
X30498Y20118
X74186Y7878
X71646Y7878
X69106Y7878
X66566Y7878
X64026Y7878
X61486Y7878
X58946Y7878
X56406Y20118
X58946Y20118
X61486Y20118
X64026Y20118
X66566Y20118
X69106Y20118
X71646Y20118
X74186Y20118
X117874Y7878
X115334Y7878
X112794Y7878
X110254Y7878
X107714Y7878
X105174Y7878
X102634Y7878
X100094Y7878
X100094Y20118
X102634Y20118
X105174Y20118
X107714Y20118
X110254Y20118
X112794Y20118
X115334Y20118
X117874Y20118
X161562Y7878
X159022Y7878
X156482Y7878
X153942Y7878
X151402Y7878
X148862Y7878
X146322Y7878
X143782Y7878
X143782Y20118
X146322Y20118
X148862Y20118
X151402Y20118
X153942Y20118
X156482Y20118
X159022Y20118
X161562Y20118
X205250Y7878
X202710Y7878
X200170Y7878
X197630Y7878
X195090Y7878
X192550Y7878
X190010Y7878
X187470Y7878
X187470Y20118
X190010Y20118
X192550Y20118
X195090Y20118
X197630Y20118
X200170Y20118
X202710Y20118
X205250Y20118
X30498Y36326
X27958Y36326
X25418Y36326
X22878Y36326
X20338Y36326
X17798Y36326
X15258Y36326
X12718Y36326
X12718Y48566
X15258Y48566
X17798Y48566
X20338Y48566
X22878Y48566
X25418Y48566
X27958Y48566
X30498Y48566
X25418Y121670
X71646Y36326
X69106Y36326
X66566Y36326
X64026Y36326
X61486Y36326
X58946Y36326
X56406Y36326
X56406Y48566
X58946Y48566
X61486Y48566
X64026Y48566
X66566Y48566
X69106Y48566
X71646Y48566
X74186Y48566
X117874Y36326
X115334Y36326
X112794Y36326
X110254Y36326
X107714Y36326
X105174Y36326
X102634Y36326
X100094Y36326
X100094Y48566
X102634Y48566
X105174Y48566
X107714Y48566
X110254Y48566
X112794Y48566
X115334Y48566
X117874Y48566
X161562Y36326
X159022Y36326
X156482Y36326
X153942Y36326
X151402Y36326
X148862Y36326
X146322Y36326
X143782Y36326
X143782Y48566
X146322Y48566
X148862Y48566
X151402Y48566
X153942Y48566
X156482Y48566
X159022Y48566
X161562Y48566
X205250Y36326
X202710Y36326
X200170Y36326
X195090Y36326
X192550Y36326
X190010Y36326
X187470Y36326
X187470Y48566
X190010Y48566
X192550Y48566
X195090Y48566
X197630Y48566
X200170Y48566
X202710Y48566
X205250Y48566
X30498Y64774
X27958Y64774
X25418Y64774
X22878Y64774
X20338Y64774
X17798Y64774
X15258Y64774
X12718Y64774
X12718Y77014
X15258Y77014
X17798Y77014
X20338Y77014
X22878Y77014
X25418Y77014
X27958Y77014
X30498Y77014
X74186Y64774
X71646Y64774
X69106Y64774
X66566Y64774
X64026Y64774
X61486Y64774
X58946Y64774
X56406Y64774
X56406Y77014
X58946Y77014
X61486Y77014
X64026Y77014
X66566Y77014
X69106Y77014
X71646Y77014
X74186Y77014
X117874Y64774
X115334Y64774
X112794Y64774
X110254Y64774
X107714Y64774
X105174Y64774
X102634Y64774
X100094Y64774
X100094Y77014
X102634Y77014
X105174Y77014
X107714Y77014
X110254Y77014
X112794Y77014
X115334Y77014
X117874Y77014
X161562Y64774
X159022Y64774
X156482Y64774
X153942Y64774
X151402Y64774
X148862Y64774
X146322Y64774
X143782Y64774
X143782Y77014
X146322Y77014
X148862Y77014
X151402Y77014
X153942Y77014
X156482Y77014
X159022Y77014
X161562Y77014
X205250Y64774
X202710Y64774
X200170Y64774
X197630Y64774
X195090Y64774
X192550Y64774
X190010Y64774
X187470Y64774
X187470Y77014
X190010Y77014
X192550Y77014
X195090Y77014
X197630Y77014
X200170Y77014
X202710Y77014
X205250Y77014
X30498Y93222
X27958Y93222
X25418Y93222
X22878Y93222
X20338Y93222
X17798Y93222
X15258Y93222
X12718Y93222
X12718Y105462
X15258Y105462
X17798Y105462
X20338Y105462
X22878Y105462
X25418Y105462
X27958Y105462
X30498Y105462
X74186Y93222
X71646Y93222
X69106Y93222
X66566Y93222
X64026Y93222
X61486Y93222
X58946Y93222
X56406Y93222
X56406Y105462
X58946Y105462
X61486Y105462
X64026Y105462
X66566Y105462
X69106Y105462
X71646Y105462
X74186Y105462
X117874Y93222
X115334Y93222
X112794Y93222
X110254Y93222
X107714Y93222
X105174Y93222
X102634Y93222
X100094Y93222
X100094Y105462
X102634Y105462
X105174Y105462
X107714Y105462
X110254Y105462
X112794Y105462
X115334Y105462
X117874Y105462
X161562Y93222
X159022Y93222
X156482Y93222
X153942Y93222
X151402Y93222
X148862Y93222
X146322Y93222
X143782Y93222
X143782Y105462
X146322Y105462
X148862Y105462
X151402Y105462
X153942Y105462
X156482Y105462
X159022Y105462
X161562Y105462
X205250Y93222
X202710Y93222
X200170Y93222
X197630Y93222
X195090Y93222
X192550Y93222
X190010Y93222
X187470Y93222
X187470Y105462
X190010Y105462
X192550Y105462
X195090Y105462
X197630Y105462
X200170Y105462
X202710Y105462
X205250Y105462
X30498Y121670
X27958Y121670
T4
X157048Y127954
X98806Y129032
X114300Y132969
X11430Y129032
X142494Y72136
X157988Y76073
X26924Y132969
X11430Y15240
X26924Y19177
X157048Y71058
X25984Y14162
X25400Y14859
X25325Y15800
X156464Y71755
X24430Y15794
X156389Y72696
X156464Y128651
X11430Y72136
X26924Y76073
X155495Y72691
X25984Y71058
X25400Y71755
X55118Y43688
X70612Y47625
X25325Y72696
X69672Y42610
X69088Y43307
X69013Y44248
X25984Y127954
X68119Y44242
X24430Y72691
X186182Y100584
X55118Y15240
X70612Y19177
X201676Y104521
X69672Y14162
X69088Y14859
X69013Y15800
X25400Y128651
X68119Y15794
X200736Y99506
X200152Y100203
X200077Y101144
X25325Y129592
X55118Y100584
X70612Y104521
X199182Y101138
X69672Y99506
X69088Y100203
X69013Y101144
X113360Y127954
X68119Y101138
X24430Y129586
X98806Y43688
X114300Y47625
X186182Y72136
X113360Y42610
X98806Y15240
X114300Y19177
X112776Y43307
X113360Y14162
X112776Y14859
X112701Y15800
X112701Y44248
X111806Y15794
X55118Y72136
X111806Y44242
X70612Y76073
X201676Y76073
X69672Y71058
X69088Y71755
X69013Y72696
X142494Y100584
X68119Y72691
X200736Y71058
X200152Y71755
X200077Y72696
X157988Y132969
X114300Y104521
X98806Y100584
X200736Y14162
X112701Y72696
X201676Y19177
X186182Y15240
X111806Y72691
X200152Y128651
X200736Y127954
X201676Y132969
X186182Y129032
X24430Y44242
X156389Y15800
X156464Y14859
X157048Y14162
X70612Y132969
X155495Y129586
X112701Y129592
X69013Y129592
X69088Y128651
X155495Y44242
X25325Y44248
X25400Y43307
X25984Y42610
X201676Y47625
X186182Y43688
X26924Y104521
X11430Y100584
X155495Y15794
X199182Y129586
X112776Y71755
X113360Y71058
X157988Y19177
X142494Y15240
X156389Y101144
X156464Y100203
X111806Y129586
X200077Y129592
X199182Y15794
X142494Y129032
X200077Y15800
X69672Y127954
X156389Y44248
X156464Y43307
X157048Y42610
X200152Y14859
X26924Y47625
X111806Y101138
X11430Y43688
X200077Y44248
X200152Y43307
X200736Y42610
X157048Y99506
X55118Y129032
X199182Y72691
X157988Y104521
X113360Y99506
X24430Y101138
X25325Y101144
X25400Y100203
X199182Y44242
X25984Y99506
X114300Y76073
X98806Y72136
X156389Y129592
X112776Y128651
X157988Y47625
X142494Y43688
X155495Y101138
X68119Y129586
X112776Y100203
X112701Y101144
T5
X1270Y38608
X31877Y35306
X37592Y38481
X17145Y38989
X16510Y43561
X12065Y38989
X37338Y42545
X22225Y42545
X22898Y40850
X20955Y43180
X25418Y41384
X19663Y40491
X13970Y39624
X17866Y40046
X46482Y47371
X48006Y42672
X51953Y35344
X53848Y48768
X71120Y41275
X44958Y38608
X75565Y35306
X81280Y38481
X60833Y38989
X60198Y43561
X55753Y38989
X81026Y42545
X65913Y42545
X66586Y40850
X64643Y43180
X69106Y41384
X63351Y40491
X177546Y132715
X57658Y39624
X61554Y40046
X113411Y40132
X90170Y47371
X91694Y42672
X95641Y35344
X97536Y48768
X114808Y41275
X88646Y38608
X119253Y35306
X124968Y38481
X104521Y38989
X103886Y43561
X99441Y38989
X124714Y42545
X109601Y42545
X110274Y40850
X108331Y43180
X112794Y41384
X107039Y40491
X101346Y39624
X105242Y40046
X157099Y40132
X133858Y47371
X135382Y42672
X139329Y35344
X141224Y48768
X158496Y41275
X132334Y38608
X162941Y35306
X168656Y38481
X148209Y38989
X147574Y43561
X143129Y38989
X168402Y42545
X153289Y42545
X153962Y40850
X152019Y43180
X156482Y41384
X150727Y40491
X145034Y39624
X148930Y40046
X200787Y40132
X177546Y47371
X179070Y42672
X183017Y35344
X184912Y48768
X202184Y41275
X176022Y38608
X206629Y35306
X212344Y38481
X191897Y38989
X191262Y43561
X186817Y38989
X212090Y42545
X196977Y42545
X197650Y40850
X195707Y43180
X200170Y41384
X194415Y40491
X188722Y39624
X192618Y40046
X26035Y68580
X2794Y75819
X4318Y71120
X8265Y63792
X10160Y77216
X27432Y69723
X1270Y67056
X31877Y63754
X37592Y66929
X17145Y67437
X16510Y72009
X12065Y67437
X37338Y70993
X22225Y70993
X22898Y69298
X20955Y71628
X25418Y69832
X19663Y68939
X13970Y68072
X17866Y68494
X69723Y68580
X46482Y75819
X48006Y71120
X51953Y63792
X53848Y77216
X71120Y69723
X44958Y67056
X75565Y63754
X81280Y66929
X60833Y67437
X60198Y72009
X55753Y67437
X81026Y70993
X65913Y70993
X66586Y69298
X64643Y71628
X69106Y69832
X63351Y68939
X57658Y68072
X61554Y68494
X113411Y68580
X90170Y75819
X91694Y71120
X95641Y63792
X97536Y77216
X114808Y69723
X88646Y67056
X119253Y63754
X124968Y66929
X104521Y67437
X103886Y72009
X99441Y67437
X124714Y70993
X109601Y70993
X110274Y69298
X108331Y71628
X112794Y69832
X107039Y68939
X101346Y68072
X105242Y68494
X157099Y68580
X133858Y75819
X135382Y71120
X139329Y63792
X141224Y77216
X158496Y69723
X132334Y67056
X162941Y63754
X168656Y66929
X148209Y67437
X147574Y72009
X143129Y67437
X168402Y70993
X153289Y70993
X153962Y69298
X152019Y71628
X156482Y69832
X150727Y68939
X145034Y68072
X148930Y68494
X200787Y68580
X177546Y75819
X179070Y71120
X183017Y63792
X184912Y77216
X202184Y69723
X176022Y67056
X206629Y63754
X212344Y66929
X191897Y67437
X191262Y72009
X186817Y67437
X212090Y70993
X196977Y70993
X197650Y69298
X195707Y71628
X200170Y69832
X194415Y68939
X188722Y68072
X192618Y68494
X26035Y97028
X2794Y104267
X4318Y99568
X8265Y92240
X10160Y105664
X27432Y98171
X1270Y95504
X31877Y92202
X37592Y95377
X17145Y95885
X16510Y100457
X12065Y95885
X37338Y99441
X22225Y99441
X22898Y97746
X20955Y100076
X25418Y98280
X19663Y97387
X13970Y96520
X17866Y96942
X69723Y97028
X46482Y104267
X48006Y99568
X51953Y92240
X53848Y105664
X71120Y98171
X44958Y95504
X75565Y92202
X81280Y95377
X60833Y95885
X60198Y100457
X55753Y95885
X81026Y99441
X65913Y99441
X66586Y97746
X64643Y100076
X69106Y98280
X63351Y97387
X57658Y96520
X61554Y96942
X113411Y97028
X90170Y104267
X91694Y99568
X95641Y92240
X97536Y105664
X114808Y98171
X88646Y95504
X119253Y92202
X124968Y95377
X104521Y95885
X103886Y100457
X99441Y95885
X124714Y99441
X109601Y99441
X110274Y97746
X108331Y100076
X112794Y98280
X107039Y97387
X101346Y96520
X105242Y96942
X157099Y97028
X135382Y99568
X139329Y92240
X141224Y105664
X158496Y98171
X132334Y95504
X162941Y92202
X168656Y95377
X148209Y95885
X147574Y100457
X143129Y95885
X168402Y99441
X153289Y99441
X153962Y97746
X152019Y100076
X156482Y98280
X150727Y97387
X145034Y96520
X148930Y96942
X200787Y97028
X177546Y104267
X179070Y99568
X183017Y92240
X184912Y105664
X202184Y98171
X176022Y95504
X206629Y92202
X212344Y95377
X191897Y95885
X191262Y100457
X186817Y95885
X212090Y99441
X196977Y99441
X197650Y97746
X195707Y100076
X200170Y98280
X194415Y97387
X188722Y96520
X192618Y96942
X26035Y125476
X2794Y132715
X4318Y128016
X8265Y120688
X10160Y134112
X27432Y126619
X1270Y123952
X31877Y120650
X37592Y123825
X17145Y124333
X16510Y128905
X12065Y124333
X37338Y127889
X22225Y127889
X22898Y126194
X20955Y128524
X25418Y126728
X19663Y125835
X13970Y124968
X17866Y125390
X69723Y125476
X46482Y132715
X48006Y128016
X51953Y120688
X53848Y134112
X71120Y126619
X44958Y123952
X75565Y120650
X81280Y123825
X60833Y124333
X60198Y128905
X55753Y124333
X81026Y127889
X65913Y127889
X66586Y126194
X64643Y128524
X69106Y126728
X63351Y125835
X57658Y124968
X61554Y125390
X113411Y125476
X90170Y132715
X91694Y128016
X95641Y120688
X97536Y134112
X114808Y126619
X88646Y123952
X119253Y120650
X124968Y123825
X104521Y124333
X133858Y104267
X103886Y128905
X99441Y124333
X124714Y127889
X109601Y127889
X110274Y126194
X108331Y128524
X112794Y126728
X107039Y125835
X101346Y124968
X105242Y125390
X157099Y125476
X133858Y132715
X135382Y128016
X139329Y120688
X141224Y134112
X158496Y126619
X132334Y123952
X162941Y120650
X168656Y123825
X148209Y124333
X147574Y128905
X143129Y124333
X168402Y127889
X153289Y127889
X153962Y126194
X152019Y128524
X156482Y126728
X150727Y125835
X145034Y124968
X148930Y125390
X200787Y125476
X69723Y40132
X179070Y128016
X183017Y120688
X184912Y134112
X202184Y126619
X176022Y123952
X206629Y120650
X26035Y11684
X2794Y18923
X212344Y123825
X4318Y14224
X8265Y6896
X10160Y20320
X191897Y124333
X27432Y12827
X191262Y128905
X186817Y124333
X212090Y127889
X196977Y127889
X197650Y126194
X195707Y128524
X200170Y126728
X194415Y125835
X188722Y124968
X192618Y125390
X1270Y10160
X31877Y6858
X37592Y10033
X17145Y10541
X16510Y15113
X12065Y10541
X37338Y14097
X22225Y14097
X22898Y12402
X20955Y14732
X25418Y12936
X19663Y12043
X13970Y11176
X17866Y11598
X69723Y11684
X46482Y18923
X48006Y14224
X51953Y6896
X53848Y20320
X71120Y12827
X44958Y10160
X75565Y6858
X81280Y10033
X60833Y10541
X60198Y15113
X55753Y10541
X81026Y14097
X65913Y14097
X66586Y12402
X64643Y14732
X69106Y12936
X63351Y12043
X57658Y11176
X61554Y11598
X113411Y11684
X90170Y18923
X91694Y14224
X95641Y6896
X97536Y20320
X114808Y12827
X88646Y10160
X119253Y6858
X124968Y10033
X104521Y10541
X103886Y15113
X99441Y10541
X124714Y14097
X109601Y14097
X110274Y12402
X108331Y14732
X112794Y12936
X107039Y12043
X101346Y11176
X105242Y11598
X157099Y11684
X133858Y18923
X135382Y14224
X139329Y6896
X141224Y20320
X158496Y12827
X132334Y10160
X162941Y6858
X168656Y10033
X148209Y10541
X147574Y15113
X143129Y10541
X168402Y14097
X153289Y14097
X153962Y12402
X152019Y14732
X156482Y12936
X150727Y12043
X145034Y11176
X148930Y11598
X200787Y11684
X177546Y18923
X179070Y14224
X183017Y6896
X184912Y20320
X202184Y12827
X176022Y10160
X206629Y6858
X212344Y10033
X191897Y10541
X191262Y15113
X186817Y10541
X212090Y14097
X196977Y14097
X197650Y12402
X195707Y14732
X200170Y12936
X194415Y12043
X188722Y11176
X192618Y11598
X26035Y40132
X2794Y47371
X4318Y42672
X8265Y35344
X10160Y48768
X27432Y41275
M30