G04 EAGLE Gerber RS-274X export*
G75*
%MOMM*%
%FSLAX34Y34*%
%LPD*%
%INSoldermask Bottom*%
%IPPOS*%
%AMOC8*
5,1,8,0,0,1.08239X$1,22.5*%
G01*
%ADD10C,2.082800*%
%ADD11C,1.203200*%
%ADD12C,1.879600*%
%ADD13C,1.727200*%
%ADD14C,3.505200*%


D10*
X292100Y101600D03*
X292100Y127000D03*
X292100Y152400D03*
X292100Y177800D03*
D11*
X50800Y12700D03*
X355600Y266700D03*
D12*
X304980Y78780D03*
X279580Y78780D03*
X254180Y78780D03*
X228780Y78780D03*
X203380Y78780D03*
X177980Y78780D03*
X152580Y78780D03*
X127180Y78780D03*
X127180Y201180D03*
X152580Y201180D03*
X177980Y201180D03*
X203380Y201180D03*
X228780Y201180D03*
X254180Y201180D03*
D13*
X279580Y201180D03*
X304980Y201180D03*
D14*
X381000Y25400D03*
X25400Y254000D03*
X25400Y25400D03*
X381000Y254000D03*
D10*
X728980Y101600D03*
X728980Y127000D03*
X728980Y152400D03*
X728980Y177800D03*
D11*
X487680Y12700D03*
X792480Y266700D03*
D12*
X741860Y78780D03*
X716460Y78780D03*
X691060Y78780D03*
X665660Y78780D03*
X640260Y78780D03*
X614860Y78780D03*
X589460Y78780D03*
X564060Y78780D03*
X564060Y201180D03*
X589460Y201180D03*
X614860Y201180D03*
X640260Y201180D03*
X665660Y201180D03*
X691060Y201180D03*
D13*
X716460Y201180D03*
X741860Y201180D03*
D14*
X817880Y25400D03*
X462280Y254000D03*
X462280Y25400D03*
X817880Y254000D03*
D10*
X1165860Y101600D03*
X1165860Y127000D03*
X1165860Y152400D03*
X1165860Y177800D03*
D11*
X924560Y12700D03*
X1229360Y266700D03*
D12*
X1178740Y78780D03*
X1153340Y78780D03*
X1127940Y78780D03*
X1102540Y78780D03*
X1077140Y78780D03*
X1051740Y78780D03*
X1026340Y78780D03*
X1000940Y78780D03*
X1000940Y201180D03*
X1026340Y201180D03*
X1051740Y201180D03*
X1077140Y201180D03*
X1102540Y201180D03*
X1127940Y201180D03*
D13*
X1153340Y201180D03*
X1178740Y201180D03*
D14*
X1254760Y25400D03*
X899160Y254000D03*
X899160Y25400D03*
X1254760Y254000D03*
D10*
X1602740Y101600D03*
X1602740Y127000D03*
X1602740Y152400D03*
X1602740Y177800D03*
D11*
X1361440Y12700D03*
X1666240Y266700D03*
D12*
X1615620Y78780D03*
X1590220Y78780D03*
X1564820Y78780D03*
X1539420Y78780D03*
X1514020Y78780D03*
X1488620Y78780D03*
X1463220Y78780D03*
X1437820Y78780D03*
X1437820Y201180D03*
X1463220Y201180D03*
X1488620Y201180D03*
X1514020Y201180D03*
X1539420Y201180D03*
X1564820Y201180D03*
D13*
X1590220Y201180D03*
X1615620Y201180D03*
D14*
X1691640Y25400D03*
X1336040Y254000D03*
X1336040Y25400D03*
X1691640Y254000D03*
D10*
X2039620Y101600D03*
X2039620Y127000D03*
X2039620Y152400D03*
X2039620Y177800D03*
D11*
X1798320Y12700D03*
X2103120Y266700D03*
D12*
X2052500Y78780D03*
X2027100Y78780D03*
X2001700Y78780D03*
X1976300Y78780D03*
X1950900Y78780D03*
X1925500Y78780D03*
X1900100Y78780D03*
X1874700Y78780D03*
X1874700Y201180D03*
X1900100Y201180D03*
X1925500Y201180D03*
X1950900Y201180D03*
X1976300Y201180D03*
X2001700Y201180D03*
D13*
X2027100Y201180D03*
X2052500Y201180D03*
D14*
X2128520Y25400D03*
X1772920Y254000D03*
X1772920Y25400D03*
X2128520Y254000D03*
D10*
X292100Y386080D03*
X292100Y411480D03*
X292100Y436880D03*
X292100Y462280D03*
D11*
X50800Y297180D03*
X355600Y551180D03*
D12*
X304980Y363260D03*
X279580Y363260D03*
X254180Y363260D03*
X228780Y363260D03*
X203380Y363260D03*
X177980Y363260D03*
X152580Y363260D03*
X127180Y363260D03*
X127180Y485660D03*
X152580Y485660D03*
X177980Y485660D03*
X203380Y485660D03*
X228780Y485660D03*
X254180Y485660D03*
D13*
X279580Y485660D03*
X304980Y485660D03*
D14*
X381000Y309880D03*
X25400Y538480D03*
X25400Y309880D03*
X381000Y538480D03*
D10*
X728980Y386080D03*
X728980Y411480D03*
X728980Y436880D03*
X728980Y462280D03*
D11*
X487680Y297180D03*
X792480Y551180D03*
D12*
X741860Y363260D03*
X716460Y363260D03*
X691060Y363260D03*
X665660Y363260D03*
X640260Y363260D03*
X614860Y363260D03*
X589460Y363260D03*
X564060Y363260D03*
X564060Y485660D03*
X589460Y485660D03*
X614860Y485660D03*
X640260Y485660D03*
X665660Y485660D03*
X691060Y485660D03*
D13*
X716460Y485660D03*
X741860Y485660D03*
D14*
X817880Y309880D03*
X462280Y538480D03*
X462280Y309880D03*
X817880Y538480D03*
D10*
X1165860Y386080D03*
X1165860Y411480D03*
X1165860Y436880D03*
X1165860Y462280D03*
D11*
X924560Y297180D03*
X1229360Y551180D03*
D12*
X1178740Y363260D03*
X1153340Y363260D03*
X1127940Y363260D03*
X1102540Y363260D03*
X1077140Y363260D03*
X1051740Y363260D03*
X1026340Y363260D03*
X1000940Y363260D03*
X1000940Y485660D03*
X1026340Y485660D03*
X1051740Y485660D03*
X1077140Y485660D03*
X1102540Y485660D03*
X1127940Y485660D03*
D13*
X1153340Y485660D03*
X1178740Y485660D03*
D14*
X1254760Y309880D03*
X899160Y538480D03*
X899160Y309880D03*
X1254760Y538480D03*
D10*
X1602740Y386080D03*
X1602740Y411480D03*
X1602740Y436880D03*
X1602740Y462280D03*
D11*
X1361440Y297180D03*
X1666240Y551180D03*
D12*
X1615620Y363260D03*
X1590220Y363260D03*
X1564820Y363260D03*
X1539420Y363260D03*
X1514020Y363260D03*
X1488620Y363260D03*
X1463220Y363260D03*
X1437820Y363260D03*
X1437820Y485660D03*
X1463220Y485660D03*
X1488620Y485660D03*
X1514020Y485660D03*
X1539420Y485660D03*
X1564820Y485660D03*
D13*
X1590220Y485660D03*
X1615620Y485660D03*
D14*
X1691640Y309880D03*
X1336040Y538480D03*
X1336040Y309880D03*
X1691640Y538480D03*
D10*
X2039620Y386080D03*
X2039620Y411480D03*
X2039620Y436880D03*
X2039620Y462280D03*
D11*
X1798320Y297180D03*
X2103120Y551180D03*
D12*
X2052500Y363260D03*
X2027100Y363260D03*
X2001700Y363260D03*
X1976300Y363260D03*
X1950900Y363260D03*
X1925500Y363260D03*
X1900100Y363260D03*
X1874700Y363260D03*
X1874700Y485660D03*
X1900100Y485660D03*
X1925500Y485660D03*
X1950900Y485660D03*
X1976300Y485660D03*
X2001700Y485660D03*
D13*
X2027100Y485660D03*
X2052500Y485660D03*
D14*
X2128520Y309880D03*
X1772920Y538480D03*
X1772920Y309880D03*
X2128520Y538480D03*
D10*
X292100Y670560D03*
X292100Y695960D03*
X292100Y721360D03*
X292100Y746760D03*
D11*
X50800Y581660D03*
X355600Y835660D03*
D12*
X304980Y647740D03*
X279580Y647740D03*
X254180Y647740D03*
X228780Y647740D03*
X203380Y647740D03*
X177980Y647740D03*
X152580Y647740D03*
X127180Y647740D03*
X127180Y770140D03*
X152580Y770140D03*
X177980Y770140D03*
X203380Y770140D03*
X228780Y770140D03*
X254180Y770140D03*
D13*
X279580Y770140D03*
X304980Y770140D03*
D14*
X381000Y594360D03*
X25400Y822960D03*
X25400Y594360D03*
X381000Y822960D03*
D10*
X728980Y670560D03*
X728980Y695960D03*
X728980Y721360D03*
X728980Y746760D03*
D11*
X487680Y581660D03*
X792480Y835660D03*
D12*
X741860Y647740D03*
X716460Y647740D03*
X691060Y647740D03*
X665660Y647740D03*
X640260Y647740D03*
X614860Y647740D03*
X589460Y647740D03*
X564060Y647740D03*
X564060Y770140D03*
X589460Y770140D03*
X614860Y770140D03*
X640260Y770140D03*
X665660Y770140D03*
X691060Y770140D03*
D13*
X716460Y770140D03*
X741860Y770140D03*
D14*
X817880Y594360D03*
X462280Y822960D03*
X462280Y594360D03*
X817880Y822960D03*
D10*
X1165860Y670560D03*
X1165860Y695960D03*
X1165860Y721360D03*
X1165860Y746760D03*
D11*
X924560Y581660D03*
X1229360Y835660D03*
D12*
X1178740Y647740D03*
X1153340Y647740D03*
X1127940Y647740D03*
X1102540Y647740D03*
X1077140Y647740D03*
X1051740Y647740D03*
X1026340Y647740D03*
X1000940Y647740D03*
X1000940Y770140D03*
X1026340Y770140D03*
X1051740Y770140D03*
X1077140Y770140D03*
X1102540Y770140D03*
X1127940Y770140D03*
D13*
X1153340Y770140D03*
X1178740Y770140D03*
D14*
X1254760Y594360D03*
X899160Y822960D03*
X899160Y594360D03*
X1254760Y822960D03*
D10*
X1602740Y670560D03*
X1602740Y695960D03*
X1602740Y721360D03*
X1602740Y746760D03*
D11*
X1361440Y581660D03*
X1666240Y835660D03*
D12*
X1615620Y647740D03*
X1590220Y647740D03*
X1564820Y647740D03*
X1539420Y647740D03*
X1514020Y647740D03*
X1488620Y647740D03*
X1463220Y647740D03*
X1437820Y647740D03*
X1437820Y770140D03*
X1463220Y770140D03*
X1488620Y770140D03*
X1514020Y770140D03*
X1539420Y770140D03*
X1564820Y770140D03*
D13*
X1590220Y770140D03*
X1615620Y770140D03*
D14*
X1691640Y594360D03*
X1336040Y822960D03*
X1336040Y594360D03*
X1691640Y822960D03*
D10*
X2039620Y670560D03*
X2039620Y695960D03*
X2039620Y721360D03*
X2039620Y746760D03*
D11*
X1798320Y581660D03*
X2103120Y835660D03*
D12*
X2052500Y647740D03*
X2027100Y647740D03*
X2001700Y647740D03*
X1976300Y647740D03*
X1950900Y647740D03*
X1925500Y647740D03*
X1900100Y647740D03*
X1874700Y647740D03*
X1874700Y770140D03*
X1900100Y770140D03*
X1925500Y770140D03*
X1950900Y770140D03*
X1976300Y770140D03*
X2001700Y770140D03*
D13*
X2027100Y770140D03*
X2052500Y770140D03*
D14*
X2128520Y594360D03*
X1772920Y822960D03*
X1772920Y594360D03*
X2128520Y822960D03*
D10*
X292100Y955040D03*
X292100Y980440D03*
X292100Y1005840D03*
X292100Y1031240D03*
D11*
X50800Y866140D03*
X355600Y1120140D03*
D12*
X304980Y932220D03*
X279580Y932220D03*
X254180Y932220D03*
X228780Y932220D03*
X203380Y932220D03*
X177980Y932220D03*
X152580Y932220D03*
X127180Y932220D03*
X127180Y1054620D03*
X152580Y1054620D03*
X177980Y1054620D03*
X203380Y1054620D03*
X228780Y1054620D03*
X254180Y1054620D03*
D13*
X279580Y1054620D03*
X304980Y1054620D03*
D14*
X381000Y878840D03*
X25400Y1107440D03*
X25400Y878840D03*
X381000Y1107440D03*
D10*
X728980Y955040D03*
X728980Y980440D03*
X728980Y1005840D03*
X728980Y1031240D03*
D11*
X487680Y866140D03*
X792480Y1120140D03*
D12*
X741860Y932220D03*
X716460Y932220D03*
X691060Y932220D03*
X665660Y932220D03*
X640260Y932220D03*
X614860Y932220D03*
X589460Y932220D03*
X564060Y932220D03*
X564060Y1054620D03*
X589460Y1054620D03*
X614860Y1054620D03*
X640260Y1054620D03*
X665660Y1054620D03*
X691060Y1054620D03*
D13*
X716460Y1054620D03*
X741860Y1054620D03*
D14*
X817880Y878840D03*
X462280Y1107440D03*
X462280Y878840D03*
X817880Y1107440D03*
D10*
X1165860Y955040D03*
X1165860Y980440D03*
X1165860Y1005840D03*
X1165860Y1031240D03*
D11*
X924560Y866140D03*
X1229360Y1120140D03*
D12*
X1178740Y932220D03*
X1153340Y932220D03*
X1127940Y932220D03*
X1102540Y932220D03*
X1077140Y932220D03*
X1051740Y932220D03*
X1026340Y932220D03*
X1000940Y932220D03*
X1000940Y1054620D03*
X1026340Y1054620D03*
X1051740Y1054620D03*
X1077140Y1054620D03*
X1102540Y1054620D03*
X1127940Y1054620D03*
D13*
X1153340Y1054620D03*
X1178740Y1054620D03*
D14*
X1254760Y878840D03*
X899160Y1107440D03*
X899160Y878840D03*
X1254760Y1107440D03*
D10*
X1602740Y955040D03*
X1602740Y980440D03*
X1602740Y1005840D03*
X1602740Y1031240D03*
D11*
X1361440Y866140D03*
X1666240Y1120140D03*
D12*
X1615620Y932220D03*
X1590220Y932220D03*
X1564820Y932220D03*
X1539420Y932220D03*
X1514020Y932220D03*
X1488620Y932220D03*
X1463220Y932220D03*
X1437820Y932220D03*
X1437820Y1054620D03*
X1463220Y1054620D03*
X1488620Y1054620D03*
X1514020Y1054620D03*
X1539420Y1054620D03*
X1564820Y1054620D03*
D13*
X1590220Y1054620D03*
X1615620Y1054620D03*
D14*
X1691640Y878840D03*
X1336040Y1107440D03*
X1336040Y878840D03*
X1691640Y1107440D03*
D10*
X2039620Y955040D03*
X2039620Y980440D03*
X2039620Y1005840D03*
X2039620Y1031240D03*
D11*
X1798320Y866140D03*
X2103120Y1120140D03*
D12*
X2052500Y932220D03*
X2027100Y932220D03*
X2001700Y932220D03*
X1976300Y932220D03*
X1950900Y932220D03*
X1925500Y932220D03*
X1900100Y932220D03*
X1874700Y932220D03*
X1874700Y1054620D03*
X1900100Y1054620D03*
X1925500Y1054620D03*
X1950900Y1054620D03*
X1976300Y1054620D03*
X2001700Y1054620D03*
D13*
X2027100Y1054620D03*
X2052500Y1054620D03*
D14*
X2128520Y878840D03*
X1772920Y1107440D03*
X1772920Y878840D03*
X2128520Y1107440D03*
D10*
X292100Y1239520D03*
X292100Y1264920D03*
X292100Y1290320D03*
X292100Y1315720D03*
D11*
X50800Y1150620D03*
X355600Y1404620D03*
D12*
X304980Y1216700D03*
X279580Y1216700D03*
X254180Y1216700D03*
X228780Y1216700D03*
X203380Y1216700D03*
X177980Y1216700D03*
X152580Y1216700D03*
X127180Y1216700D03*
X127180Y1339100D03*
X152580Y1339100D03*
X177980Y1339100D03*
X203380Y1339100D03*
X228780Y1339100D03*
X254180Y1339100D03*
D13*
X279580Y1339100D03*
X304980Y1339100D03*
D14*
X381000Y1163320D03*
X25400Y1391920D03*
X25400Y1163320D03*
X381000Y1391920D03*
D10*
X728980Y1239520D03*
X728980Y1264920D03*
X728980Y1290320D03*
X728980Y1315720D03*
D11*
X487680Y1150620D03*
X792480Y1404620D03*
D12*
X741860Y1216700D03*
X716460Y1216700D03*
X691060Y1216700D03*
X665660Y1216700D03*
X640260Y1216700D03*
X614860Y1216700D03*
X589460Y1216700D03*
X564060Y1216700D03*
X564060Y1339100D03*
X589460Y1339100D03*
X614860Y1339100D03*
X640260Y1339100D03*
X665660Y1339100D03*
X691060Y1339100D03*
D13*
X716460Y1339100D03*
X741860Y1339100D03*
D14*
X817880Y1163320D03*
X462280Y1391920D03*
X462280Y1163320D03*
X817880Y1391920D03*
D10*
X1165860Y1239520D03*
X1165860Y1264920D03*
X1165860Y1290320D03*
X1165860Y1315720D03*
D11*
X924560Y1150620D03*
X1229360Y1404620D03*
D12*
X1178740Y1216700D03*
X1153340Y1216700D03*
X1127940Y1216700D03*
X1102540Y1216700D03*
X1077140Y1216700D03*
X1051740Y1216700D03*
X1026340Y1216700D03*
X1000940Y1216700D03*
X1000940Y1339100D03*
X1026340Y1339100D03*
X1051740Y1339100D03*
X1077140Y1339100D03*
X1102540Y1339100D03*
X1127940Y1339100D03*
D13*
X1153340Y1339100D03*
X1178740Y1339100D03*
D14*
X1254760Y1163320D03*
X899160Y1391920D03*
X899160Y1163320D03*
X1254760Y1391920D03*
D10*
X1602740Y1239520D03*
X1602740Y1264920D03*
X1602740Y1290320D03*
X1602740Y1315720D03*
D11*
X1361440Y1150620D03*
X1666240Y1404620D03*
D12*
X1615620Y1216700D03*
X1590220Y1216700D03*
X1564820Y1216700D03*
X1539420Y1216700D03*
X1514020Y1216700D03*
X1488620Y1216700D03*
X1463220Y1216700D03*
X1437820Y1216700D03*
X1437820Y1339100D03*
X1463220Y1339100D03*
X1488620Y1339100D03*
X1514020Y1339100D03*
X1539420Y1339100D03*
X1564820Y1339100D03*
D13*
X1590220Y1339100D03*
X1615620Y1339100D03*
D14*
X1691640Y1163320D03*
X1336040Y1391920D03*
X1336040Y1163320D03*
X1691640Y1391920D03*
D10*
X2039620Y1239520D03*
X2039620Y1264920D03*
X2039620Y1290320D03*
X2039620Y1315720D03*
D11*
X1798320Y1150620D03*
X2103120Y1404620D03*
D12*
X2052500Y1216700D03*
X2027100Y1216700D03*
X2001700Y1216700D03*
X1976300Y1216700D03*
X1950900Y1216700D03*
X1925500Y1216700D03*
X1900100Y1216700D03*
X1874700Y1216700D03*
X1874700Y1339100D03*
X1900100Y1339100D03*
X1925500Y1339100D03*
X1950900Y1339100D03*
X1976300Y1339100D03*
X2001700Y1339100D03*
D13*
X2027100Y1339100D03*
X2052500Y1339100D03*
D14*
X2128520Y1163320D03*
X1772920Y1391920D03*
X1772920Y1163320D03*
X2128520Y1391920D03*
D11*
X93980Y1438275D03*
X2135505Y1438275D03*
M02*
