%
M48
M72
T01C0.0120
T02C0.0295
T03C0.0400
T04C0.1300
%
T01
X7129Y5565
X8625Y7000
X9375Y7250
X10625Y7000
X10909Y7416
X11616Y7591
X12890Y7733
X12625Y8400
X12125Y8650
X10375Y8800
X7875Y10850
X4975Y10300
X5575Y8450
X4375Y6850
X13882Y7993
X14125Y7450
X14375Y8350
X16425Y5550
X18675Y6800
X18575Y8400
X21575Y6850
X22775Y8450
X22175Y10300
X25075Y10850
X27575Y8800
X28109Y7416
X27825Y7000
X28816Y7591
X29825Y8400
X29325Y8650
X30090Y7733
X31082Y7993
X31325Y7450
X31575Y8350
X33625Y5550
X35875Y6800
X35775Y8400
X38775Y6850
X39975Y8450
X39375Y10300
X42275Y10850
X44775Y8800
X45309Y7416
X45025Y7000
X46016Y7591
X47290Y7733
X47025Y8400
X46525Y8650
X48282Y7993
X48525Y7450
X48775Y8350
X50825Y5550
X53075Y6800
X52975Y8400
X55975Y6850
X57175Y8450
X56575Y10300
X59475Y10850
X61975Y8800
X62509Y7416
X62225Y7000
X63216Y7591
X64490Y7733
X64225Y8400
X63725Y8650
X65482Y7993
X65725Y7450
X65975Y8350
X68025Y5550
X70275Y6800
X70175Y8400
X73175Y6850
X74375Y8450
X73775Y10300
X76675Y10850
X79175Y8800
X80925Y8650
X81425Y8400
X81690Y7733
X82682Y7993
X82925Y7450
X83175Y8350
X80416Y7591
X79709Y7416
X79425Y7000
X78175Y7250
X77425Y7000
X75929Y5565
X85225Y5550
X87475Y6800
X87375Y8400
X85225Y16750
X87475Y18000
X87375Y19600
X83175Y19550
X82682Y19193
X82925Y18650
X81690Y18933
X81425Y19600
X80925Y19850
X79175Y20000
X79709Y18616
X79425Y18200
X80416Y18791
X78175Y18450
X77425Y18200
X75929Y16765
X73175Y18050
X74375Y19650
X73775Y21500
X76675Y22050
X70175Y19600
X70275Y18000
X68025Y16750
X65725Y18650
X65482Y19193
X65975Y19550
X64490Y18933
X64225Y19600
X63725Y19850
X63216Y18791
X62509Y18616
X62225Y18200
X60975Y18450
X60225Y18200
X58729Y16765
X55975Y18050
X57175Y19650
X56575Y21500
X59475Y22050
X61975Y20000
X53075Y18000
X52975Y19600
X50825Y16750
X48525Y18650
X48282Y19193
X48775Y19550
X47290Y18933
X47025Y19600
X46525Y19850
X46016Y18791
X45309Y18616
X45025Y18200
X43775Y18450
X43025Y18200
X41529Y16765
X38775Y18050
X39975Y19650
X39375Y21500
X42275Y22050
X44775Y20000
X35775Y19600
X35875Y18000
X33625Y16750
X31325Y18650
X31082Y19193
X31575Y19550
X30090Y18933
X29825Y19600
X29325Y19850
X28816Y18791
X28109Y18616
X27825Y18200
X26575Y18450
X25825Y18200
X24329Y16765
X21575Y18050
X22775Y19650
X22175Y21500
X25075Y22050
X27575Y20000
X18575Y19600
X18675Y18000
X16425Y16750
X14125Y18650
X13882Y19193
X14375Y19550
X12890Y18933
X12625Y19600
X12125Y19850
X11616Y18791
X10909Y18616
X10625Y18200
X9375Y18450
X8625Y18200
X7129Y16765
X4375Y18050
X5575Y19650
X4975Y21500
X7875Y22050
X10375Y20000
X7129Y27965
X8625Y29400
X9375Y29650
X10625Y29400
X10909Y29816
X11616Y29991
X12890Y30133
X13882Y30393
X14125Y29850
X14375Y30750
X12625Y30800
X12125Y31050
X10375Y31200
X7875Y33250
X4975Y32700
X5575Y30850
X4375Y29250
X16425Y27950
X18675Y29200
X18575Y30800
X21575Y29250
X22775Y30850
X22175Y32700
X25075Y33250
X27575Y31200
X28109Y29816
X27825Y29400
X28816Y29991
X29325Y31050
X29825Y30800
X30090Y30133
X31082Y30393
X31325Y29850
X31575Y30750
X35775Y30800
X35875Y29200
X33625Y27950
X38775Y29250
X39975Y30850
X39375Y32700
X42275Y33250
X44775Y31200
X45309Y29816
X45025Y29400
X46016Y29991
X47290Y30133
X48282Y30393
X48525Y29850
X48775Y30750
X47025Y30800
X46525Y31050
X43775Y29650
X43025Y29400
X41529Y27965
X50825Y27950
X53075Y29200
X55975Y29250
X57175Y30850
X56575Y32700
X59475Y33250
X61975Y31200
X62509Y29816
X62225Y29400
X63216Y29991
X64490Y30133
X65482Y30393
X65725Y29850
X65975Y30750
X64225Y30800
X63725Y31050
X60975Y29650
X60225Y29400
X58729Y27965
X52975Y30800
X50825Y39150
X53075Y40400
X55975Y40450
X57175Y42050
X56575Y43900
X59475Y44450
X61975Y42400
X62509Y41016
X62225Y40600
X63216Y41191
X64490Y41333
X64225Y42000
X63725Y42250
X65482Y41593
X65725Y41050
X65975Y41950
X68025Y39150
X70275Y40400
X70175Y42000
X73175Y40450
X75929Y39165
X77425Y40600
X78175Y40850
X79425Y40600
X79709Y41016
X80416Y41191
X81690Y41333
X81425Y42000
X80925Y42250
X79175Y42400
X82682Y41593
X82925Y41050
X83175Y41950
X87375Y42000
X87475Y40400
X85225Y39150
X76675Y44450
X73775Y43900
X74375Y42050
X75929Y50365
X73175Y51650
X74375Y53250
X73775Y55100
X76675Y55650
X79175Y53600
X80925Y53450
X81425Y53200
X81690Y52533
X82682Y52793
X82925Y52250
X83175Y53150
X80416Y52391
X79709Y52216
X79425Y51800
X78175Y52050
X77425Y51800
X70275Y51600
X68025Y50350
X65725Y52250
X65482Y52793
X65975Y53150
X64490Y52533
X64225Y53200
X63725Y53450
X63216Y52391
X62509Y52216
X62225Y51800
X60975Y52050
X60225Y51800
X58729Y50365
X55975Y51650
X53075Y51600
X52975Y53200
X56575Y55100
X57175Y53250
X59475Y55650
X61975Y53600
X70175Y53200
X85225Y50350
X87475Y51600
X87375Y53200
X60975Y40850
X60225Y40600
X58729Y39165
X52975Y42000
X48775Y41950
X48282Y41593
X48525Y41050
X47290Y41333
X47025Y42000
X46525Y42250
X46016Y41191
X45309Y41016
X45025Y40600
X43775Y40850
X43025Y40600
X44775Y42400
X42275Y44450
X39375Y43900
X39975Y42050
X38775Y40450
X35875Y40400
X33625Y39150
X31325Y41050
X31082Y41593
X31575Y41950
X30090Y41333
X29825Y42000
X29325Y42250
X28816Y41191
X28109Y41016
X27825Y40600
X26575Y40850
X25825Y40600
X27575Y42400
X25075Y44450
X22175Y43900
X22775Y42050
X21575Y40450
X18675Y40400
X16425Y39150
X14125Y41050
X13882Y41593
X14375Y41950
X12890Y41333
X12625Y42000
X12125Y42250
X11616Y41191
X10909Y41016
X10625Y40600
X9375Y40850
X8625Y40600
X10375Y42400
X7875Y44450
X4975Y43900
X5575Y42050
X4375Y40450
X7129Y39165
X18575Y42000
X24329Y39165
X35775Y42000
X41529Y39165
X26575Y29650
X25825Y29400
X24329Y27965
X26575Y7250
X25825Y7000
X24329Y5565
X41529Y5565
X43025Y7000
X43775Y7250
X58729Y5565
X60225Y7000
X60975Y7250
X68025Y27950
X70275Y29200
X70175Y30800
X73175Y29250
X75929Y27965
X77425Y29400
X78175Y29650
X79425Y29400
X79709Y29816
X80416Y29991
X81690Y30133
X82682Y30393
X82925Y29850
X83175Y30750
X81425Y30800
X80925Y31050
X79175Y31200
X76675Y33250
X73775Y32700
X74375Y30850
X85225Y27950
X87475Y29200
X87375Y30800
X50825Y50350
X48525Y52250
X48282Y52793
X48775Y53150
X47290Y52533
X47025Y53200
X46525Y53450
X46016Y52391
X45309Y52216
X45025Y51800
X43775Y52050
X43025Y51800
X41529Y50365
X38775Y51650
X39975Y53250
X39375Y55100
X42275Y55650
X44775Y53600
X35775Y53200
X35875Y51600
X33625Y50350
X31325Y52250
X31082Y52793
X31575Y53150
X30090Y52533
X29825Y53200
X29325Y53450
X28816Y52391
X28109Y52216
X27825Y51800
X26575Y52050
X25825Y51800
X24329Y50365
X21575Y51650
X22775Y53250
X22175Y55100
X25075Y55650
X27575Y53600
X18575Y53200
X18675Y51600
X16425Y50350
X14125Y52250
X13882Y52793
X14375Y53150
X12890Y52533
X12625Y53200
X12125Y53450
X11616Y52391
X10909Y52216
X10625Y51800
X9375Y52050
X8625Y51800
X7129Y50365
X4375Y51650
X5575Y53250
X4975Y55100
X7875Y55650
X10375Y53600
T02
X9882Y55570
X8882Y55570
X10882Y55570
X11882Y55570
X12882Y55570
X13882Y55570
X14882Y55570
X15882Y55570
X15882Y50752
X14882Y50752
X13882Y50752
X12882Y50752
X11882Y50752
X10882Y50752
X9882Y50752
X8882Y50752
X8882Y44370
X9882Y44370
X10882Y44370
X11882Y44370
X12882Y44370
X13882Y44370
X14882Y44370
X15882Y44370
X15882Y39552
X14882Y39552
X13882Y39552
X12882Y39552
X11882Y39552
X10882Y39552
X9882Y39552
X8882Y39552
X8882Y33170
X9882Y33170
X10882Y33170
X11882Y33170
X12882Y33170
X13882Y33170
X14882Y33170
X15882Y33170
X15882Y28352
X14882Y28352
X13882Y28352
X12882Y28352
X11882Y28352
X10882Y28352
X9882Y28352
X8882Y28352
X8882Y21970
X9882Y21970
X10882Y21970
X11882Y21970
X12882Y21970
X13882Y21970
X14882Y21970
X15882Y21970
X15882Y17152
X14882Y17152
X13882Y17152
X12882Y17152
X11882Y17152
X10882Y17152
X9882Y17152
X8882Y17152
X8882Y10770
X9882Y10770
X10882Y10770
X11882Y10770
X12882Y10770
X13882Y10770
X14882Y10770
X15882Y10770
X15882Y5952
X14882Y5952
X13882Y5952
X12882Y5952
X11882Y5952
X10882Y5952
X9882Y5952
X8882Y5952
X26082Y5952
X27082Y5952
X28082Y5952
X29082Y5952
X30082Y5952
X31082Y5952
X32082Y5952
X33082Y5952
X33082Y10770
X32082Y10770
X31082Y10770
X30082Y10770
X29082Y10770
X28082Y10770
X27082Y10770
X26082Y10770
X26082Y17152
X27082Y17152
X28082Y17152
X29082Y17152
X30082Y17152
X31082Y17152
X32082Y17152
X33082Y17152
X33082Y21970
X32082Y21970
X31082Y21970
X30082Y21970
X29082Y21970
X28082Y21970
X27082Y21970
X26082Y21970
X26082Y28352
X27082Y28352
X28082Y28352
X29082Y28352
X30082Y28352
X31082Y28352
X32082Y28352
X33082Y28352
X33082Y33170
X32082Y33170
X31082Y33170
X30082Y33170
X29082Y33170
X28082Y33170
X27082Y33170
X26082Y33170
X26082Y39552
X27082Y39552
X28082Y39552
X29082Y39552
X30082Y39552
X31082Y39552
X32082Y39552
X33082Y39552
X33082Y44370
X32082Y44370
X31082Y44370
X30082Y44370
X29082Y44370
X28082Y44370
X27082Y44370
X26082Y44370
X26082Y50752
X27082Y50752
X28082Y50752
X29082Y50752
X30082Y50752
X31082Y50752
X32082Y50752
X33082Y50752
X33082Y55570
X32082Y55570
X31082Y55570
X30082Y55570
X29082Y55570
X28082Y55570
X27082Y55570
X26082Y55570
X43282Y55570
X44282Y55570
X45282Y55570
X46282Y55570
X47282Y55570
X48282Y55570
X49282Y55570
X50282Y55570
X50282Y50752
X49282Y50752
X48282Y50752
X47282Y50752
X46282Y50752
X45282Y50752
X44282Y50752
X43282Y50752
X43282Y44370
X44282Y44370
X45282Y44370
X46282Y44370
X47282Y44370
X48282Y44370
X49282Y44370
X50282Y44370
X50282Y39552
X49282Y39552
X48282Y39552
X47282Y39552
X46282Y39552
X45282Y39552
X44282Y39552
X43282Y39552
X43282Y33170
X44282Y33170
X45282Y33170
X46282Y33170
X47282Y33170
X48282Y33170
X49282Y33170
X50282Y33170
X50282Y28352
X49282Y28352
X48282Y28352
X47282Y28352
X46282Y28352
X45282Y28352
X44282Y28352
X43282Y28352
X43282Y21970
X44282Y21970
X45282Y21970
X46282Y21970
X47282Y21970
X48282Y21970
X49282Y21970
X50282Y21970
X50282Y17152
X49282Y17152
X48282Y17152
X47282Y17152
X46282Y17152
X45282Y17152
X44282Y17152
X43282Y17152
X43282Y10770
X44282Y10770
X45282Y10770
X46282Y10770
X47282Y10770
X48282Y10770
X49282Y10770
X50282Y10770
X50282Y5952
X49282Y5952
X48282Y5952
X47282Y5952
X46282Y5952
X45282Y5952
X44282Y5952
X43282Y5952
X60482Y5952
X61482Y5952
X62482Y5952
X63482Y5952
X64482Y5952
X65482Y5952
X66482Y5952
X67482Y5952
X67482Y10770
X66482Y10770
X65482Y10770
X64482Y10770
X63482Y10770
X62482Y10770
X61482Y10770
X60482Y10770
X60482Y17152
X61482Y17152
X62482Y17152
X63482Y17152
X64482Y17152
X65482Y17152
X66482Y17152
X67482Y17152
X67482Y21970
X66482Y21970
X65482Y21970
X64482Y21970
X63482Y21970
X62482Y21970
X61482Y21970
X60482Y21970
X60482Y28352
X61482Y28352
X62482Y28352
X63482Y28352
X64482Y28352
X65482Y28352
X66482Y28352
X67482Y28352
X67482Y33170
X66482Y33170
X65482Y33170
X64482Y33170
X63482Y33170
X62482Y33170
X61482Y33170
X60482Y33170
X60482Y39552
X61482Y39552
X62482Y39552
X63482Y39552
X64482Y39552
X65482Y39552
X66482Y39552
X67482Y39552
X67482Y44370
X66482Y44370
X65482Y44370
X64482Y44370
X63482Y44370
X62482Y44370
X61482Y44370
X60482Y44370
X60482Y50752
X61482Y50752
X62482Y50752
X63482Y50752
X64482Y50752
X65482Y50752
X66482Y50752
X67482Y50752
X67482Y55570
X66482Y55570
X65482Y55570
X64482Y55570
X63482Y55570
X62482Y55570
X61482Y55570
X60482Y55570
X77682Y55570
X78682Y55570
X79682Y55570
X80682Y55570
X81682Y55570
X82682Y55570
X83682Y55570
X84682Y55570
X84682Y50752
X83682Y50752
X82682Y50752
X81682Y50752
X80682Y50752
X79682Y50752
X78682Y50752
X77682Y50752
X77682Y44370
X78682Y44370
X79682Y44370
X80682Y44370
X81682Y44370
X82682Y44370
X83682Y44370
X84682Y44370
X84682Y39552
X83682Y39552
X82682Y39552
X81682Y39552
X80682Y39552
X79682Y39552
X78682Y39552
X77682Y39552
X77682Y33170
X78682Y33170
X79682Y33170
X80682Y33170
X81682Y33170
X82682Y33170
X83682Y33170
X84682Y33170
X84682Y28352
X83682Y28352
X82682Y28352
X81682Y28352
X80682Y28352
X79682Y28352
X78682Y28352
X77682Y28352
X77682Y21970
X78682Y21970
X79682Y21970
X80682Y21970
X81682Y21970
X82682Y21970
X83682Y21970
X84682Y21970
X84682Y17152
X83682Y17152
X82682Y17152
X81682Y17152
X80682Y17152
X79682Y17152
X78682Y17152
X77682Y17152
X77682Y10770
X78682Y10770
X79682Y10770
X80682Y10770
X81682Y10770
X82682Y10770
X83682Y10770
X84682Y10770
X84682Y5952
X83682Y5952
X82682Y5952
X81682Y5952
X80682Y5952
X79682Y5952
X78682Y5952
X77682Y5952
T03
X84175Y6850
X84175Y7850
X84175Y8850
X84175Y9850
X84175Y18050
X84175Y19050
X84175Y20050
X84175Y21050
X84175Y29250
X84175Y30250
X84175Y31250
X84175Y32250
X84175Y40450
X84175Y41450
X84175Y42450
X84175Y43450
X84175Y51650
X84175Y52650
X84175Y53650
X84175Y54650
X66975Y54650
X66975Y53650
X66975Y52650
X66975Y51650
X66975Y43450
X66975Y42450
X66975Y41450
X66975Y40450
X66975Y32250
X66975Y31250
X66975Y30250
X66975Y29250
X66975Y21050
X66975Y20050
X66975Y19050
X66975Y18050
X66975Y9850
X66975Y8850
X66975Y7850
X66975Y6850
X49775Y6850
X49775Y7850
X49775Y8850
X49775Y9850
X49775Y18050
X49775Y19050
X49775Y20050
X49775Y21050
X49775Y29250
X49775Y30250
X49775Y31250
X49775Y32250
X49775Y40450
X49775Y41450
X49775Y42450
X49775Y43450
X49775Y51650
X49775Y52650
X49775Y53650
X49775Y54650
X32575Y54650
X32575Y53650
X32575Y52650
X32575Y51650
X32575Y43450
X32575Y42450
X32575Y41450
X32575Y40450
X32575Y32250
X32575Y31250
X32575Y30250
X32575Y29250
X32575Y21050
X32575Y20050
X32575Y19050
X32575Y18050
X32575Y9850
X32575Y8850
X32575Y7850
X32575Y6850
X15375Y6850
X15375Y7850
X15375Y8850
X15375Y9850
X15375Y18050
X15375Y19050
X15375Y20050
X15375Y21050
X15375Y29250
X15375Y30250
X15375Y31250
X15375Y32250
X15375Y40450
X15375Y41450
X15375Y42450
X15375Y43450
X15375Y51650
X15375Y52650
X15375Y53650
X15375Y54650
T04
X4875Y3850
X4875Y12850
X4875Y15050
X18875Y15050
X18875Y12850
X22075Y12850
X22075Y15050
X36075Y15050
X39275Y15050
X39275Y12850
X36075Y12850
X36075Y3850
X39275Y3850
X53275Y3850
X56475Y3850
X56475Y12850
X53275Y12850
X53275Y15050
X56475Y15050
X70475Y15050
X73675Y15050
X73675Y12850
X70475Y12850
X70475Y3850
X73675Y3850
X87675Y3850
X87675Y12850
X87675Y15050
X87675Y24050
X87675Y26250
X73675Y26250
X73675Y24050
X70475Y24050
X70475Y26250
X56475Y26250
X56475Y24050
X53275Y24050
X53275Y26250
X39275Y26250
X39275Y24050
X36075Y24050
X36075Y26250
X22075Y26250
X22075Y24050
X18875Y24050
X18875Y26250
X4875Y26250
X4875Y24050
X4875Y35250
X4875Y37450
X18875Y37450
X18875Y35250
X22075Y35250
X22075Y37450
X36075Y37450
X36075Y35250
X39275Y35250
X39275Y37450
X53275Y37450
X53275Y35250
X56475Y35250
X56475Y37450
X70475Y37450
X70475Y35250
X73675Y35250
X73675Y37450
X87675Y37450
X87675Y35250
X87675Y46450
X87675Y48650
X87675Y57650
X73675Y57650
X70475Y57650
X70475Y48650
X73675Y48650
X73675Y46450
X70475Y46450
X56475Y46450
X53275Y46450
X53275Y48650
X56475Y48650
X56475Y57650
X53275Y57650
X39275Y57650
X36075Y57650
X36075Y48650
X39275Y48650
X39275Y46450
X36075Y46450
X22075Y46450
X22075Y48650
X18875Y48650
X18875Y46450
X4875Y46450
X4875Y48650
X4875Y57650
X18875Y57650
X22075Y57650
X22075Y3850
X18875Y3850
M30
