%
M48
M72
T01C0.0150
T02C0.0295
T03C0.0400
T04C0.1300
%
T01
X8325Y4175
X9875Y4575
X10875Y4175
X9375Y5975
X9825Y7675
X10875Y7675
X11634Y9984
X12375Y11725
X11625Y12875
X13375Y13375
X15625Y15825
X10875Y16375
X9875Y16775
X9375Y18175
X9825Y19875
X10875Y19875
X9125Y21925
X8630Y22230
X7325Y24025
X7325Y24805
X5625Y26075
X8325Y28575
X9875Y28975
X10875Y28575
X9375Y30375
X9825Y32075
X10875Y32075
X9125Y34125
X8630Y34430
X7325Y36225
X7325Y37005
X5625Y38275
X11625Y37275
X12375Y36125
X13375Y37775
X11634Y34384
X7375Y31275
X13375Y25575
X11625Y25075
X12375Y23925
X11634Y22184
X7375Y19075
X8325Y16375
X5625Y13875
X7325Y12605
X7325Y11825
X8630Y10030
X9125Y9725
X7375Y6875
X15625Y3625
X23575Y6875
X25575Y5975
X26075Y4575
X27075Y4175
X24525Y4175
X26025Y7675
X27075Y7675
X27834Y9984
X28575Y11725
X27825Y12875
X29575Y13375
X31825Y15825
X27075Y16375
X26075Y16775
X25575Y18175
X23575Y19075
X26025Y19875
X27075Y19875
X25325Y21925
X24830Y22230
X23525Y24025
X23525Y24805
X21825Y26075
X24525Y28575
X26075Y28975
X27075Y28575
X25575Y30375
X23575Y31275
X26025Y32075
X27075Y32075
X25325Y34125
X24830Y34430
X23525Y36225
X23525Y37005
X21825Y38275
X27825Y37275
X28575Y36125
X29575Y37775
X27834Y34384
X31825Y28025
X29575Y25575
X27825Y25075
X28575Y23925
X27834Y22184
X24525Y16375
X21825Y13875
X23525Y12605
X23525Y11825
X24830Y10030
X25325Y9725
X31825Y3625
X39775Y6875
X41775Y5975
X42275Y4575
X43275Y4175
X40725Y4175
X42225Y7675
X43275Y7675
X44034Y9984
X44775Y11725
X44025Y12875
X45775Y13375
X48025Y15825
X43275Y16375
X42275Y16775
X40725Y16375
X41775Y18175
X39775Y19075
X42225Y19875
X43275Y19875
X41525Y21925
X41030Y22230
X39725Y24025
X39725Y24805
X38025Y26075
X40725Y28575
X42275Y28975
X43275Y28575
X41775Y30375
X39775Y31275
X42225Y32075
X43275Y32075
X41525Y34125
X41030Y34430
X39725Y36225
X39725Y37005
X38025Y38275
X44025Y37275
X44775Y36125
X45775Y37775
X44034Y34384
X48025Y28025
X45775Y25575
X44025Y25075
X44775Y23925
X44034Y22184
X38025Y13875
X39725Y12605
X39725Y11825
X41030Y10030
X41525Y9725
X48025Y3625
X15625Y28025
T02
X14882Y30877
X13882Y30877
X12882Y30877
X11882Y30877
X10882Y30877
X9882Y30877
X8882Y30877
X7882Y30877
X7882Y35695
X8882Y35695
X9882Y35695
X10882Y35695
X11882Y35695
X12882Y35695
X13882Y35695
X14882Y35695
X24082Y35695
X25082Y35695
X26082Y35695
X27082Y35695
X28082Y35695
X29082Y35695
X30082Y35695
X31082Y35695
X31082Y30877
X30082Y30877
X29082Y30877
X28082Y30877
X27082Y30877
X26082Y30877
X25082Y30877
X24082Y30877
X24082Y23495
X25082Y23495
X26082Y23495
X27082Y23495
X28082Y23495
X29082Y23495
X30082Y23495
X31082Y23495
X31082Y18677
X30082Y18677
X29082Y18677
X28082Y18677
X27082Y18677
X26082Y18677
X25082Y18677
X24082Y18677
X14882Y18677
X13882Y18677
X12882Y18677
X11882Y18677
X10882Y18677
X9882Y18677
X8882Y18677
X7882Y18677
X7882Y23495
X8882Y23495
X9882Y23495
X10882Y23495
X11882Y23495
X12882Y23495
X13882Y23495
X14882Y23495
X14882Y11295
X13882Y11295
X12882Y11295
X11882Y11295
X10882Y11295
X9882Y11295
X8882Y11295
X7882Y11295
X7882Y6477
X8882Y6477
X9882Y6477
X10882Y6477
X11882Y6477
X12882Y6477
X13882Y6477
X14882Y6477
X24082Y6477
X25082Y6477
X26082Y6477
X27082Y6477
X28082Y6477
X29082Y6477
X30082Y6477
X31082Y6477
X31082Y11295
X30082Y11295
X29082Y11295
X28082Y11295
X27082Y11295
X26082Y11295
X25082Y11295
X24082Y11295
X40282Y11295
X41282Y11295
X42282Y11295
X43282Y11295
X44282Y11295
X45282Y11295
X46282Y11295
X47282Y11295
X47282Y6477
X46282Y6477
X45282Y6477
X44282Y6477
X43282Y6477
X42282Y6477
X41282Y6477
X40282Y6477
X40282Y18677
X41282Y18677
X42282Y18677
X43282Y18677
X44282Y18677
X45282Y18677
X46282Y18677
X47282Y18677
X47282Y23495
X46282Y23495
X45282Y23495
X44282Y23495
X43282Y23495
X42282Y23495
X41282Y23495
X40282Y23495
X40282Y30877
X41282Y30877
X42282Y30877
X43282Y30877
X44282Y30877
X45282Y30877
X46282Y30877
X47282Y30877
X47282Y35695
X46282Y35695
X45282Y35695
X44282Y35695
X43282Y35695
X42282Y35695
X41282Y35695
X40282Y35695
T03
X41775Y27775
X42775Y27775
X43775Y27775
X44775Y27775
X28575Y27775
X27575Y27775
X26575Y27775
X25575Y27775
X12375Y27775
X11375Y27775
X10375Y27775
X9375Y27775
X9375Y15575
X10375Y15575
X11375Y15575
X12375Y15575
X25575Y15575
X26575Y15575
X27575Y15575
X28575Y15575
X41775Y15575
X42775Y15575
X43775Y15575
X44775Y15575
X44775Y3375
X43775Y3375
X42775Y3375
X41775Y3375
X28575Y3375
X27575Y3375
X26575Y3375
X25575Y3375
X12375Y3375
X11375Y3375
X10375Y3375
X9375Y3375
T04
X3875Y3875
X17875Y13875
X20075Y16075
X17875Y26075
X20075Y28275
X17875Y38275
X3875Y28275
X3875Y16075
X20075Y3875
X34075Y13875
X36275Y16075
X34075Y26075
X36275Y28275
X34075Y38275
X50275Y38275
X50275Y26075
X50275Y13875
X36275Y3875
M30
